<?xml version="1.0" encoding="UTF-8" standalone="no"?>
<!-- Created with Inkscape (http://www.inkscape.org/) -->

<svg
   xmlns:dc="http://purl.org/dc/elements/1.1/"
   xmlns:cc="http://creativecommons.org/ns#"
   xmlns:rdf="http://www.w3.org/1999/02/22-rdf-syntax-ns#"
   xmlns:svg="http://www.w3.org/2000/svg"
   xmlns="http://www.w3.org/2000/svg"
   xmlns:sodipodi="http://sodipodi.sourceforge.net/DTD/sodipodi-0.dtd"
   xmlns:inkscape="http://www.inkscape.org/namespaces/inkscape"
   width="210mm"
   height="297mm"
   viewBox="0 0 210 297"
   version="1.1"
   id="svg8"
   inkscape:version="0.92.1 r15371"
   sodipodi:docname="hanabi_tokens_2.svg">
  <defs
     id="defs2" />
  <sodipodi:namedview
     id="base"
     pagecolor="#ffffff"
     bordercolor="#666666"
     borderopacity="1.0"
     inkscape:pageopacity="0.0"
     inkscape:pageshadow="2"
     inkscape:zoom="1.979899"
     inkscape:cx="460.34287"
     inkscape:cy="669.11802"
     inkscape:document-units="mm"
     inkscape:current-layer="g4516"
     showgrid="false"
     inkscape:window-width="1920"
     inkscape:window-height="1057"
     inkscape:window-x="-8"
     inkscape:window-y="-8"
     inkscape:window-maximized="1" />
  <metadata
     id="metadata5">
    <rdf:RDF>
      <cc:Work
         rdf:about="">
        <dc:format>image/svg+xml</dc:format>
        <dc:type
           rdf:resource="http://purl.org/dc/dcmitype/StillImage" />
        <dc:title></dc:title>
      </cc:Work>
    </rdf:RDF>
  </metadata>
  <g
     inkscape:label="Layer 1"
     inkscape:groupmode="layer"
     id="layer1">
    <text
       xml:space="preserve"
       style="font-style:normal;font-weight:normal;font-size:10.58333302px;line-height:1.25;font-family:'Segoe MDL2 Assets';letter-spacing:0px;word-spacing:0px;fill:#000000;fill-opacity:1;stroke:none;stroke-width:0.26458332;-inkscape-font-specification:'Segoe MDL2 Assets';font-stretch:normal;font-variant:normal;"
       x="109.31324"
       y="108.30772"
       id="text4493"><tspan
         sodipodi:role="line"
         id="tspan4491"
         x="109.31324"
         y="117.96321"
         style="stroke-width:0.26458332;-inkscape-font-specification:'Segoe MDL2 Assets';font-family:'Segoe MDL2 Assets';font-weight:normal;font-style:normal;font-stretch:normal;font-variant:normal;" /></text>
    <g
       id="g4511"
       transform="matrix(0.41929731,0,0,0.41929731,50.699767,65.797577)">
      <path
         style="fill:none;fill-opacity:1;stroke:#1a1a1a;stroke-width:0.21639301;stroke-miterlimit:4;stroke-dasharray:none"
         d="M 81.667158,116.98884 A 22.608381,22.608381 0 0 1 59.058777,139.59722 22.608381,22.608381 0 0 1 36.450396,116.98884 22.608381,22.608381 0 0 1 59.058777,94.380457 22.608381,22.608381 0 0 1 81.667158,116.98884 Z"
         id="path4487" />
      <g
         id="text4497"
         style="font-style:normal;font-weight:normal;font-size:32.36579895px;line-height:1.25;font-family:sans-serif;letter-spacing:0px;word-spacing:0px;fill:#ff0000;fill-opacity:1;stroke:none;stroke-width:0.80914497"
         aria-label="">
        <path
           id="path4499"
           style="fill:#ff0000;stroke-width:0.80914497"
           d="m 65.127364,119.0117 v 2.02286 h -8.09145 v -10.11431 h 2.022863 v 8.09145 z m 3.650635,-10.30395 q 2.133487,2.14929 3.287151,4.70947 1.153664,2.54438 1.153664,5.59448 0,1.95965 -0.505716,3.77706 -0.505715,1.80162 -1.438128,3.38198 -0.91661,1.56455 -2.212506,2.86045 -1.280093,1.28009 -2.860454,2.21251 -1.564558,0.91661 -3.381973,1.42232 -1.801612,0.50572 -3.76126,0.50572 -1.959648,0 -3.777064,-0.50572 -1.801611,-0.50571 -3.381973,-1.42232 -1.564557,-0.93242 -2.860454,-2.21251 -1.280092,-1.2959 -2.212505,-2.86045 -0.91661,-1.58036 -1.422326,-3.38198 -0.505715,-1.81741 -0.505715,-3.77706 0,-1.7542 0.410894,-3.41358 0.426697,-1.65938 1.185271,-3.12912 0.774377,-1.46973 1.864826,-2.71822 1.090449,-1.26429 2.433756,-2.22831 1.343307,-0.97982 2.923669,-1.62777 1.580361,-0.64795 3.318758,-0.9008 v -2.1651 H 52.99019 v -2.02286 h 10.114312 v 2.02286 h -4.045725 v 2.02286 q 2.196702,0 4.266975,0.64795 2.086077,0.64795 3.871885,1.92804 l 3.287152,-3.28715 1.422325,1.42233 z m -9.719222,22.44113 q 2.512774,0 4.709476,-0.94822 2.212506,-0.96402 3.856082,-2.6076 1.659379,-1.65938 2.607596,-3.85608 0.96402,-2.2125 0.96402,-4.72528 0,-2.51277 -0.96402,-4.70948 -0.948217,-2.2125 -2.607596,-3.85608 -1.643576,-1.65938 -3.856082,-2.60759 -2.196702,-0.96402 -4.709476,-0.96402 -2.512775,0 -4.72528,0.96402 -2.196703,0.94821 -3.856082,2.60759 -1.643576,1.64358 -2.607596,3.85608 -0.948217,2.19671 -0.948217,4.70948 0,2.51278 0.948217,4.72528 0.96402,2.1967 2.607596,3.85608 1.659379,1.64358 3.856082,2.6076 2.212505,0.94822 4.72528,0.94822 z"
           inkscape:connector-curvature="0" />
      </g>
    </g>
    <g
       id="g4516"
       transform="matrix(0.41929731,0,0,0.41929731,50.592628,65.797577)">
      <g
         aria-label=""
         style="font-style:normal;font-weight:normal;font-size:32.3169632px;line-height:1.25;font-family:sans-serif;letter-spacing:0px;word-spacing:0px;fill:#ff0000;fill-opacity:1;stroke:none;stroke-width:0.80792409"
         id="text4504">
        <path
           d="m 105.67392,116.892 h 2.01981 v 2.01981 h -2.01981 z m 1.00991,-12.11886 q 0.83632,0 1.56219,0.31559 0.74165,0.3156 1.29394,0.86789 0.5523,0.55229 0.86789,1.29394 0.3156,0.72587 0.3156,1.5622 0,0.74165 -0.22092,1.29394 -0.22092,0.53651 -0.56807,0.97834 -0.33138,0.44184 -0.72587,0.80477 -0.39449,0.34716 -0.74165,0.69431 -0.33137,0.34716 -0.55229,0.71009 -0.22092,0.36294 -0.22092,0.82055 v 0.75743 h -2.01981 v -0.75743 q 0,-0.72587 0.22092,-1.27816 0.22091,-0.55229 0.55229,-0.99413 0.34715,-0.44183 0.74165,-0.78899 0.39449,-0.36293 0.72587,-0.71008 0.34715,-0.34716 0.56807,-0.71009 0.22092,-0.36294 0.22092,-0.82055 0,-0.42606 -0.1578,-0.78899 -0.1578,-0.36294 -0.44183,-0.63119 -0.26826,-0.28404 -0.6312,-0.44183 -0.36293,-0.1578 -0.78898,-0.1578 -0.42606,0 -0.78899,0.1578 -0.36294,0.15779 -0.64697,0.44183 -0.26826,0.26825 -0.42606,0.63119 -0.15779,0.36293 -0.15779,0.78899 h -2.01981 q 0,-0.83633 0.31559,-1.5622 0.3156,-0.74165 0.86789,-1.29394 0.55229,-0.55229 1.27816,-0.86789 0.74165,-0.31559 1.57798,-0.31559 z m 6.05943,13.4917 q 1.87779,0.88367 3.37687,2.20917 1.49908,1.3255 2.54054,2.98237 1.04146,1.65688 1.59376,3.58201 0.56807,1.92513 0.56807,3.99228 h -2.01981 q 0,-1.95669 -0.56807,-3.75558 -0.5523,-1.81468 -1.59376,-3.31376 -1.04147,-1.49907 -2.54054,-2.63522 -1.49908,-1.13614 -3.37687,-1.76733 v -3.78714 q 0.931,-0.53652 1.67265,-1.27817 0.75743,-0.75742 1.27816,-1.65687 0.52074,-0.89945 0.80477,-1.90935 0.28404,-1.02569 0.28404,-2.11449 0,-1.67266 -0.64697,-3.14018 -0.63119,-1.46751 -1.73578,-2.55632 -1.0888,-1.10458 -2.55632,-1.73577 -1.46752,-0.64697 -3.14017,-0.64697 -1.67266,0 -3.14018,0.64697 -1.46752,0.63119 -2.5721,1.73577 -1.088803,1.08881 -1.735774,2.55632 -0.63119,1.46752 -0.63119,3.14018 0,1.0888 0.284035,2.11449 0.284036,1.0099 0.804769,1.90935 0.52073,0.89945 1.26238,1.65687 0.75743,0.74165 1.68844,1.27817 v 3.8187 q -1.8778,0.64697 -3.376874,1.76733 -1.499078,1.12037 -2.540543,2.61944 -1.041464,1.4833 -1.609536,3.2822 -0.552292,1.79889 -0.552292,3.77136 h -2.01981 q 0,-2.06715 0.552292,-3.99228 0.568072,-1.92513 1.609536,-3.58201 1.041465,-1.65687 2.540543,-2.98237 1.499078,-1.3255 3.376874,-2.20917 v -1.45174 q -0.94679,-0.71009 -1.704219,-1.59376 -0.741649,-0.89944 -1.262381,-1.92513 -0.520733,-1.02568 -0.804769,-2.16183 -0.268256,-1.13614 -0.268256,-2.31962 0,-1.38862 0.362935,-2.68256 0.362935,-1.29394 1.009905,-2.41431 0.66275,-1.12036 1.577977,-2.03559 0.931008,-0.931 2.051368,-1.57797 1.12037,-0.662754 2.41431,-1.025688 1.29394,-0.362935 2.68256,-0.362935 1.38862,0 2.68256,0.362935 1.29394,0.362934 2.4143,1.025688 1.12036,0.64697 2.03559,1.57797 0.93101,0.91523 1.57798,2.03559 0.66275,1.12037 1.02568,2.41431 0.36294,1.29394 0.36294,2.68256 0,1.18348 -0.28404,2.31962 -0.26825,1.13615 -0.78899,2.16183 -0.52073,1.02569 -1.27816,1.92513 -0.74165,0.88367 -1.68843,1.59376 z"
           style="fill:#ff0000;stroke-width:0.80792409"
           id="path4728" />
      </g>
      <path
         style="fill:none;fill-opacity:1;stroke:#1a1a1a;stroke-width:0.21639301;stroke-miterlimit:4;stroke-dasharray:none"
         d="M 129.2922,116.98884 A 22.608381,22.608381 0 0 1 106.68382,139.59722 22.608381,22.608381 0 0 1 84.075441,116.98884 22.608381,22.608381 0 0 1 106.68382,94.380457 22.608381,22.608381 0 0 1 129.2922,116.98884 Z"
         id="circle4506" />
    </g>
    <g
       transform="matrix(0.41929731,0,0,0.41929731,50.699767,85.376756)"
       id="g4534">
      <path
         style="fill:none;fill-opacity:1;stroke:#1a1a1a;stroke-width:0.21639301;stroke-miterlimit:4;stroke-dasharray:none"
         d="M 81.667158,116.98884 A 22.608381,22.608381 0 0 1 59.058777,139.59722 22.608381,22.608381 0 0 1 36.450396,116.98884 22.608381,22.608381 0 0 1 59.058777,94.380457 22.608381,22.608381 0 0 1 81.667158,116.98884 Z"
         id="circle4528" />
      <g
         aria-label=""
         style="font-style:normal;font-weight:normal;font-size:32.36579895px;line-height:1.25;font-family:sans-serif;letter-spacing:0px;word-spacing:0px;fill:#ff0000;fill-opacity:1;stroke:none;stroke-width:0.80914497"
         id="g4532">
        <path
           inkscape:connector-curvature="0"
           d="m 65.127364,119.0117 v 2.02286 h -8.09145 v -10.11431 h 2.022863 v 8.09145 z m 3.650635,-10.30395 q 2.133487,2.14929 3.287151,4.70947 1.153664,2.54438 1.153664,5.59448 0,1.95965 -0.505716,3.77706 -0.505715,1.80162 -1.438128,3.38198 -0.91661,1.56455 -2.212506,2.86045 -1.280093,1.28009 -2.860454,2.21251 -1.564558,0.91661 -3.381973,1.42232 -1.801612,0.50572 -3.76126,0.50572 -1.959648,0 -3.777064,-0.50572 -1.801611,-0.50571 -3.381973,-1.42232 -1.564557,-0.93242 -2.860454,-2.21251 -1.280092,-1.2959 -2.212505,-2.86045 -0.91661,-1.58036 -1.422326,-3.38198 -0.505715,-1.81741 -0.505715,-3.77706 0,-1.7542 0.410894,-3.41358 0.426697,-1.65938 1.185271,-3.12912 0.774377,-1.46973 1.864826,-2.71822 1.090449,-1.26429 2.433756,-2.22831 1.343307,-0.97982 2.923669,-1.62777 1.580361,-0.64795 3.318758,-0.9008 v -2.1651 H 52.99019 v -2.02286 h 10.114312 v 2.02286 h -4.045725 v 2.02286 q 2.196702,0 4.266975,0.64795 2.086077,0.64795 3.871885,1.92804 l 3.287152,-3.28715 1.422325,1.42233 z m -9.719222,22.44113 q 2.512774,0 4.709476,-0.94822 2.212506,-0.96402 3.856082,-2.6076 1.659379,-1.65938 2.607596,-3.85608 0.96402,-2.2125 0.96402,-4.72528 0,-2.51277 -0.96402,-4.70948 -0.948217,-2.2125 -2.607596,-3.85608 -1.643576,-1.65938 -3.856082,-2.60759 -2.196702,-0.96402 -4.709476,-0.96402 -2.512775,0 -4.72528,0.96402 -2.196703,0.94821 -3.856082,2.60759 -1.643576,1.64358 -2.607596,3.85608 -0.948217,2.19671 -0.948217,4.70948 0,2.51278 0.948217,4.72528 0.96402,2.1967 2.607596,3.85608 1.659379,1.64358 3.856082,2.6076 2.212505,0.94822 4.72528,0.94822 z"
           style="fill:#ff0000;stroke-width:0.80914497"
           id="path4530" />
      </g>
    </g>
    <g
       id="g4542"
       transform="matrix(0.41929731,0,0,0.41929731,33.615254,75.400768)">
      <path
         style="fill:none;fill-opacity:1;stroke:#1a1a1a;stroke-width:0.21639301;stroke-miterlimit:4;stroke-dasharray:none"
         d="M 81.667158,116.98884 A 22.608381,22.608381 0 0 1 59.058777,139.59722 22.608381,22.608381 0 0 1 36.450396,116.98884 22.608381,22.608381 0 0 1 59.058777,94.380457 22.608381,22.608381 0 0 1 81.667158,116.98884 Z"
         id="circle4536" />
      <g
         id="g4540"
         style="font-style:normal;font-weight:normal;font-size:32.36579895px;line-height:1.25;font-family:sans-serif;letter-spacing:0px;word-spacing:0px;fill:#ff0000;fill-opacity:1;stroke:none;stroke-width:0.80914497"
         aria-label="">
        <path
           id="path4538"
           style="fill:#ff0000;stroke-width:0.80914497"
           d="m 65.127364,119.0117 v 2.02286 h -8.09145 v -10.11431 h 2.022863 v 8.09145 z m 3.650635,-10.30395 q 2.133487,2.14929 3.287151,4.70947 1.153664,2.54438 1.153664,5.59448 0,1.95965 -0.505716,3.77706 -0.505715,1.80162 -1.438128,3.38198 -0.91661,1.56455 -2.212506,2.86045 -1.280093,1.28009 -2.860454,2.21251 -1.564558,0.91661 -3.381973,1.42232 -1.801612,0.50572 -3.76126,0.50572 -1.959648,0 -3.777064,-0.50572 -1.801611,-0.50571 -3.381973,-1.42232 -1.564557,-0.93242 -2.860454,-2.21251 -1.280092,-1.2959 -2.212505,-2.86045 -0.91661,-1.58036 -1.422326,-3.38198 -0.505715,-1.81741 -0.505715,-3.77706 0,-1.7542 0.410894,-3.41358 0.426697,-1.65938 1.185271,-3.12912 0.774377,-1.46973 1.864826,-2.71822 1.090449,-1.26429 2.433756,-2.22831 1.343307,-0.97982 2.923669,-1.62777 1.580361,-0.64795 3.318758,-0.9008 v -2.1651 H 52.99019 v -2.02286 h 10.114312 v 2.02286 h -4.045725 v 2.02286 q 2.196702,0 4.266975,0.64795 2.086077,0.64795 3.871885,1.92804 l 3.287152,-3.28715 1.422325,1.42233 z m -9.719222,22.44113 q 2.512774,0 4.709476,-0.94822 2.212506,-0.96402 3.856082,-2.6076 1.659379,-1.65938 2.607596,-3.85608 0.96402,-2.2125 0.96402,-4.72528 0,-2.51277 -0.96402,-4.70948 -0.948217,-2.2125 -2.607596,-3.85608 -1.643576,-1.65938 -3.856082,-2.60759 -2.196702,-0.96402 -4.709476,-0.96402 -2.512775,0 -4.72528,0.96402 -2.196703,0.94821 -3.856082,2.60759 -1.643576,1.64358 -2.607596,3.85608 -0.948217,2.19671 -0.948217,4.70948 0,2.51278 0.948217,4.72528 0.96402,2.1967 2.607596,3.85608 1.659379,1.64358 3.856082,2.6076 2.212505,0.94822 4.72528,0.94822 z"
           inkscape:connector-curvature="0" />
      </g>
    </g>
    <g
       transform="matrix(0.41929731,0,0,0.41929731,50.592628,85.376756)"
       id="g4550">
      <g
         aria-label=""
         style="font-style:normal;font-weight:normal;font-size:32.3169632px;line-height:1.25;font-family:sans-serif;letter-spacing:0px;word-spacing:0px;fill:#ff0000;fill-opacity:1;stroke:none;stroke-width:0.80792409"
         id="text4546">
        <path
           d="m 105.67392,116.892 h 2.01981 v 2.01981 h -2.01981 z m 1.00991,-12.11886 q 0.83632,0 1.56219,0.31559 0.74165,0.3156 1.29394,0.86789 0.5523,0.55229 0.86789,1.29394 0.3156,0.72587 0.3156,1.5622 0,0.74165 -0.22092,1.29394 -0.22092,0.53651 -0.56807,0.97834 -0.33138,0.44184 -0.72587,0.80477 -0.39449,0.34716 -0.74165,0.69431 -0.33137,0.34716 -0.55229,0.71009 -0.22092,0.36294 -0.22092,0.82055 v 0.75743 h -2.01981 v -0.75743 q 0,-0.72587 0.22092,-1.27816 0.22091,-0.55229 0.55229,-0.99413 0.34715,-0.44183 0.74165,-0.78899 0.39449,-0.36293 0.72587,-0.71008 0.34715,-0.34716 0.56807,-0.71009 0.22092,-0.36294 0.22092,-0.82055 0,-0.42606 -0.1578,-0.78899 -0.1578,-0.36294 -0.44183,-0.63119 -0.26826,-0.28404 -0.6312,-0.44183 -0.36293,-0.1578 -0.78898,-0.1578 -0.42606,0 -0.78899,0.1578 -0.36294,0.15779 -0.64697,0.44183 -0.26826,0.26825 -0.42606,0.63119 -0.15779,0.36293 -0.15779,0.78899 h -2.01981 q 0,-0.83633 0.31559,-1.5622 0.3156,-0.74165 0.86789,-1.29394 0.55229,-0.55229 1.27816,-0.86789 0.74165,-0.31559 1.57798,-0.31559 z m 6.05943,13.4917 q 1.87779,0.88367 3.37687,2.20917 1.49908,1.3255 2.54054,2.98237 1.04146,1.65688 1.59376,3.58201 0.56807,1.92513 0.56807,3.99228 h -2.01981 q 0,-1.95669 -0.56807,-3.75558 -0.5523,-1.81468 -1.59376,-3.31376 -1.04147,-1.49907 -2.54054,-2.63522 -1.49908,-1.13614 -3.37687,-1.76733 v -3.78714 q 0.931,-0.53652 1.67265,-1.27817 0.75743,-0.75742 1.27816,-1.65687 0.52074,-0.89945 0.80477,-1.90935 0.28404,-1.02569 0.28404,-2.11449 0,-1.67266 -0.64697,-3.14018 -0.63119,-1.46751 -1.73578,-2.55632 -1.0888,-1.10458 -2.55632,-1.73577 -1.46752,-0.64697 -3.14017,-0.64697 -1.67266,0 -3.14018,0.64697 -1.46752,0.63119 -2.5721,1.73577 -1.088803,1.08881 -1.735774,2.55632 -0.63119,1.46752 -0.63119,3.14018 0,1.0888 0.284035,2.11449 0.284036,1.0099 0.804769,1.90935 0.52073,0.89945 1.26238,1.65687 0.75743,0.74165 1.68844,1.27817 v 3.8187 q -1.8778,0.64697 -3.376874,1.76733 -1.499078,1.12037 -2.540543,2.61944 -1.041464,1.4833 -1.609536,3.2822 -0.552292,1.79889 -0.552292,3.77136 h -2.01981 q 0,-2.06715 0.552292,-3.99228 0.568072,-1.92513 1.609536,-3.58201 1.041465,-1.65687 2.540543,-2.98237 1.499078,-1.3255 3.376874,-2.20917 v -1.45174 q -0.94679,-0.71009 -1.704219,-1.59376 -0.741649,-0.89944 -1.262381,-1.92513 -0.520733,-1.02568 -0.804769,-2.16183 -0.268256,-1.13614 -0.268256,-2.31962 0,-1.38862 0.362935,-2.68256 0.362935,-1.29394 1.009905,-2.41431 0.66275,-1.12036 1.577977,-2.03559 0.931008,-0.931 2.051368,-1.57797 1.12037,-0.662754 2.41431,-1.025688 1.29394,-0.362935 2.68256,-0.362935 1.38862,0 2.68256,0.362935 1.29394,0.362934 2.4143,1.025688 1.12036,0.64697 2.03559,1.57797 0.93101,0.91523 1.57798,2.03559 0.66275,1.12037 1.02568,2.41431 0.36294,1.29394 0.36294,2.68256 0,1.18348 -0.28404,2.31962 -0.26825,1.13615 -0.78899,2.16183 -0.52073,1.02569 -1.27816,1.92513 -0.74165,0.88367 -1.68843,1.59376 z"
           style="fill:#ff0000;stroke-width:0.80792409"
           id="path4722" />
      </g>
      <path
         style="fill:none;fill-opacity:1;stroke:#1a1a1a;stroke-width:0.21639301;stroke-miterlimit:4;stroke-dasharray:none"
         d="M 129.2922,116.98884 A 22.608381,22.608381 0 0 1 106.68382,139.59722 22.608381,22.608381 0 0 1 84.075441,116.98884 22.608381,22.608381 0 0 1 106.68382,94.380457 22.608381,22.608381 0 0 1 129.2922,116.98884 Z"
         id="circle4548" />
    </g>
    <g
       transform="matrix(0.41929731,0,0,0.41929731,70.171807,65.797577)"
       id="g4558">
      <g
         aria-label=""
         style="font-style:normal;font-weight:normal;font-size:32.3169632px;line-height:1.25;font-family:sans-serif;letter-spacing:0px;word-spacing:0px;fill:#ff0000;fill-opacity:1;stroke:none;stroke-width:0.80792409"
         id="text4554">
        <path
           d="m 105.67392,116.892 h 2.01981 v 2.01981 h -2.01981 z m 1.00991,-12.11886 q 0.83632,0 1.56219,0.31559 0.74165,0.3156 1.29394,0.86789 0.5523,0.55229 0.86789,1.29394 0.3156,0.72587 0.3156,1.5622 0,0.74165 -0.22092,1.29394 -0.22092,0.53651 -0.56807,0.97834 -0.33138,0.44184 -0.72587,0.80477 -0.39449,0.34716 -0.74165,0.69431 -0.33137,0.34716 -0.55229,0.71009 -0.22092,0.36294 -0.22092,0.82055 v 0.75743 h -2.01981 v -0.75743 q 0,-0.72587 0.22092,-1.27816 0.22091,-0.55229 0.55229,-0.99413 0.34715,-0.44183 0.74165,-0.78899 0.39449,-0.36293 0.72587,-0.71008 0.34715,-0.34716 0.56807,-0.71009 0.22092,-0.36294 0.22092,-0.82055 0,-0.42606 -0.1578,-0.78899 -0.1578,-0.36294 -0.44183,-0.63119 -0.26826,-0.28404 -0.6312,-0.44183 -0.36293,-0.1578 -0.78898,-0.1578 -0.42606,0 -0.78899,0.1578 -0.36294,0.15779 -0.64697,0.44183 -0.26826,0.26825 -0.42606,0.63119 -0.15779,0.36293 -0.15779,0.78899 h -2.01981 q 0,-0.83633 0.31559,-1.5622 0.3156,-0.74165 0.86789,-1.29394 0.55229,-0.55229 1.27816,-0.86789 0.74165,-0.31559 1.57798,-0.31559 z m 6.05943,13.4917 q 1.87779,0.88367 3.37687,2.20917 1.49908,1.3255 2.54054,2.98237 1.04146,1.65688 1.59376,3.58201 0.56807,1.92513 0.56807,3.99228 h -2.01981 q 0,-1.95669 -0.56807,-3.75558 -0.5523,-1.81468 -1.59376,-3.31376 -1.04147,-1.49907 -2.54054,-2.63522 -1.49908,-1.13614 -3.37687,-1.76733 v -3.78714 q 0.931,-0.53652 1.67265,-1.27817 0.75743,-0.75742 1.27816,-1.65687 0.52074,-0.89945 0.80477,-1.90935 0.28404,-1.02569 0.28404,-2.11449 0,-1.67266 -0.64697,-3.14018 -0.63119,-1.46751 -1.73578,-2.55632 -1.0888,-1.10458 -2.55632,-1.73577 -1.46752,-0.64697 -3.14017,-0.64697 -1.67266,0 -3.14018,0.64697 -1.46752,0.63119 -2.5721,1.73577 -1.088803,1.08881 -1.735774,2.55632 -0.63119,1.46752 -0.63119,3.14018 0,1.0888 0.284035,2.11449 0.284036,1.0099 0.804769,1.90935 0.52073,0.89945 1.26238,1.65687 0.75743,0.74165 1.68844,1.27817 v 3.8187 q -1.8778,0.64697 -3.376874,1.76733 -1.499078,1.12037 -2.540543,2.61944 -1.041464,1.4833 -1.609536,3.2822 -0.552292,1.79889 -0.552292,3.77136 h -2.01981 q 0,-2.06715 0.552292,-3.99228 0.568072,-1.92513 1.609536,-3.58201 1.041465,-1.65687 2.540543,-2.98237 1.499078,-1.3255 3.376874,-2.20917 v -1.45174 q -0.94679,-0.71009 -1.704219,-1.59376 -0.741649,-0.89944 -1.262381,-1.92513 -0.520733,-1.02568 -0.804769,-2.16183 -0.268256,-1.13614 -0.268256,-2.31962 0,-1.38862 0.362935,-2.68256 0.362935,-1.29394 1.009905,-2.41431 0.66275,-1.12036 1.577977,-2.03559 0.931008,-0.931 2.051368,-1.57797 1.12037,-0.662754 2.41431,-1.025688 1.29394,-0.362935 2.68256,-0.362935 1.38862,0 2.68256,0.362935 1.29394,0.362934 2.4143,1.025688 1.12036,0.64697 2.03559,1.57797 0.93101,0.91523 1.57798,2.03559 0.66275,1.12037 1.02568,2.41431 0.36294,1.29394 0.36294,2.68256 0,1.18348 -0.28404,2.31962 -0.26825,1.13615 -0.78899,2.16183 -0.52073,1.02569 -1.27816,1.92513 -0.74165,0.88367 -1.68843,1.59376 z"
           style="fill:#ff0000;stroke-width:0.80792409"
           id="path4718" />
      </g>
      <path
         style="fill:none;fill-opacity:1;stroke:#1a1a1a;stroke-width:0.21639301;stroke-miterlimit:4;stroke-dasharray:none"
         d="M 129.2922,116.98884 A 22.608381,22.608381 0 0 1 106.68382,139.59722 22.608381,22.608381 0 0 1 84.075441,116.98884 22.608381,22.608381 0 0 1 106.68382,94.380457 22.608381,22.608381 0 0 1 129.2922,116.98884 Z"
         id="circle4556" />
    </g>
    <g
       id="g4566"
       transform="matrix(0.41929731,0,0,0.41929731,70.171807,85.376756)">
      <g
         aria-label=""
         style="font-style:normal;font-weight:normal;font-size:32.3169632px;line-height:1.25;font-family:sans-serif;letter-spacing:0px;word-spacing:0px;fill:#ff0000;fill-opacity:1;stroke:none;stroke-width:0.80792409"
         id="text4562">
        <path
           d="m 105.67392,116.892 h 2.01981 v 2.01981 h -2.01981 z m 1.00991,-12.11886 q 0.83632,0 1.56219,0.31559 0.74165,0.3156 1.29394,0.86789 0.5523,0.55229 0.86789,1.29394 0.3156,0.72587 0.3156,1.5622 0,0.74165 -0.22092,1.29394 -0.22092,0.53651 -0.56807,0.97834 -0.33138,0.44184 -0.72587,0.80477 -0.39449,0.34716 -0.74165,0.69431 -0.33137,0.34716 -0.55229,0.71009 -0.22092,0.36294 -0.22092,0.82055 v 0.75743 h -2.01981 v -0.75743 q 0,-0.72587 0.22092,-1.27816 0.22091,-0.55229 0.55229,-0.99413 0.34715,-0.44183 0.74165,-0.78899 0.39449,-0.36293 0.72587,-0.71008 0.34715,-0.34716 0.56807,-0.71009 0.22092,-0.36294 0.22092,-0.82055 0,-0.42606 -0.1578,-0.78899 -0.1578,-0.36294 -0.44183,-0.63119 -0.26826,-0.28404 -0.6312,-0.44183 -0.36293,-0.1578 -0.78898,-0.1578 -0.42606,0 -0.78899,0.1578 -0.36294,0.15779 -0.64697,0.44183 -0.26826,0.26825 -0.42606,0.63119 -0.15779,0.36293 -0.15779,0.78899 h -2.01981 q 0,-0.83633 0.31559,-1.5622 0.3156,-0.74165 0.86789,-1.29394 0.55229,-0.55229 1.27816,-0.86789 0.74165,-0.31559 1.57798,-0.31559 z m 6.05943,13.4917 q 1.87779,0.88367 3.37687,2.20917 1.49908,1.3255 2.54054,2.98237 1.04146,1.65688 1.59376,3.58201 0.56807,1.92513 0.56807,3.99228 h -2.01981 q 0,-1.95669 -0.56807,-3.75558 -0.5523,-1.81468 -1.59376,-3.31376 -1.04147,-1.49907 -2.54054,-2.63522 -1.49908,-1.13614 -3.37687,-1.76733 v -3.78714 q 0.931,-0.53652 1.67265,-1.27817 0.75743,-0.75742 1.27816,-1.65687 0.52074,-0.89945 0.80477,-1.90935 0.28404,-1.02569 0.28404,-2.11449 0,-1.67266 -0.64697,-3.14018 -0.63119,-1.46751 -1.73578,-2.55632 -1.0888,-1.10458 -2.55632,-1.73577 -1.46752,-0.64697 -3.14017,-0.64697 -1.67266,0 -3.14018,0.64697 -1.46752,0.63119 -2.5721,1.73577 -1.088803,1.08881 -1.735774,2.55632 -0.63119,1.46752 -0.63119,3.14018 0,1.0888 0.284035,2.11449 0.284036,1.0099 0.804769,1.90935 0.52073,0.89945 1.26238,1.65687 0.75743,0.74165 1.68844,1.27817 v 3.8187 q -1.8778,0.64697 -3.376874,1.76733 -1.499078,1.12037 -2.540543,2.61944 -1.041464,1.4833 -1.609536,3.2822 -0.552292,1.79889 -0.552292,3.77136 h -2.01981 q 0,-2.06715 0.552292,-3.99228 0.568072,-1.92513 1.609536,-3.58201 1.041465,-1.65687 2.540543,-2.98237 1.499078,-1.3255 3.376874,-2.20917 v -1.45174 q -0.94679,-0.71009 -1.704219,-1.59376 -0.741649,-0.89944 -1.262381,-1.92513 -0.520733,-1.02568 -0.804769,-2.16183 -0.268256,-1.13614 -0.268256,-2.31962 0,-1.38862 0.362935,-2.68256 0.362935,-1.29394 1.009905,-2.41431 0.66275,-1.12036 1.577977,-2.03559 0.931008,-0.931 2.051368,-1.57797 1.12037,-0.662754 2.41431,-1.025688 1.29394,-0.362935 2.68256,-0.362935 1.38862,0 2.68256,0.362935 1.29394,0.362934 2.4143,1.025688 1.12036,0.64697 2.03559,1.57797 0.93101,0.91523 1.57798,2.03559 0.66275,1.12037 1.02568,2.41431 0.36294,1.29394 0.36294,2.68256 0,1.18348 -0.28404,2.31962 -0.26825,1.13615 -0.78899,2.16183 -0.52073,1.02569 -1.27816,1.92513 -0.74165,0.88367 -1.68843,1.59376 z"
           style="fill:#ff0000;stroke-width:0.80792409"
           id="path4714" />
      </g>
      <path
         style="fill:none;fill-opacity:1;stroke:#1a1a1a;stroke-width:0.21639301;stroke-miterlimit:4;stroke-dasharray:none"
         d="M 129.2922,116.98884 A 22.608381,22.608381 0 0 1 106.68382,139.59722 22.608381,22.608381 0 0 1 84.075441,116.98884 22.608381,22.608381 0 0 1 106.68382,94.380457 22.608381,22.608381 0 0 1 129.2922,116.98884 Z"
         id="circle4564" />
    </g>
    <g
       id="g4574"
       transform="matrix(0.41929731,0,0,0.41929731,89.750986,65.797577)">
      <g
         aria-label=""
         style="font-style:normal;font-weight:normal;font-size:32.3169632px;line-height:1.25;font-family:sans-serif;letter-spacing:0px;word-spacing:0px;fill:#ff0000;fill-opacity:1;stroke:none;stroke-width:0.80792409"
         id="text4570">
        <path
           d="m 105.67392,116.892 h 2.01981 v 2.01981 h -2.01981 z m 1.00991,-12.11886 q 0.83632,0 1.56219,0.31559 0.74165,0.3156 1.29394,0.86789 0.5523,0.55229 0.86789,1.29394 0.3156,0.72587 0.3156,1.5622 0,0.74165 -0.22092,1.29394 -0.22092,0.53651 -0.56807,0.97834 -0.33138,0.44184 -0.72587,0.80477 -0.39449,0.34716 -0.74165,0.69431 -0.33137,0.34716 -0.55229,0.71009 -0.22092,0.36294 -0.22092,0.82055 v 0.75743 h -2.01981 v -0.75743 q 0,-0.72587 0.22092,-1.27816 0.22091,-0.55229 0.55229,-0.99413 0.34715,-0.44183 0.74165,-0.78899 0.39449,-0.36293 0.72587,-0.71008 0.34715,-0.34716 0.56807,-0.71009 0.22092,-0.36294 0.22092,-0.82055 0,-0.42606 -0.1578,-0.78899 -0.1578,-0.36294 -0.44183,-0.63119 -0.26826,-0.28404 -0.6312,-0.44183 -0.36293,-0.1578 -0.78898,-0.1578 -0.42606,0 -0.78899,0.1578 -0.36294,0.15779 -0.64697,0.44183 -0.26826,0.26825 -0.42606,0.63119 -0.15779,0.36293 -0.15779,0.78899 h -2.01981 q 0,-0.83633 0.31559,-1.5622 0.3156,-0.74165 0.86789,-1.29394 0.55229,-0.55229 1.27816,-0.86789 0.74165,-0.31559 1.57798,-0.31559 z m 6.05943,13.4917 q 1.87779,0.88367 3.37687,2.20917 1.49908,1.3255 2.54054,2.98237 1.04146,1.65688 1.59376,3.58201 0.56807,1.92513 0.56807,3.99228 h -2.01981 q 0,-1.95669 -0.56807,-3.75558 -0.5523,-1.81468 -1.59376,-3.31376 -1.04147,-1.49907 -2.54054,-2.63522 -1.49908,-1.13614 -3.37687,-1.76733 v -3.78714 q 0.931,-0.53652 1.67265,-1.27817 0.75743,-0.75742 1.27816,-1.65687 0.52074,-0.89945 0.80477,-1.90935 0.28404,-1.02569 0.28404,-2.11449 0,-1.67266 -0.64697,-3.14018 -0.63119,-1.46751 -1.73578,-2.55632 -1.0888,-1.10458 -2.55632,-1.73577 -1.46752,-0.64697 -3.14017,-0.64697 -1.67266,0 -3.14018,0.64697 -1.46752,0.63119 -2.5721,1.73577 -1.088803,1.08881 -1.735774,2.55632 -0.63119,1.46752 -0.63119,3.14018 0,1.0888 0.284035,2.11449 0.284036,1.0099 0.804769,1.90935 0.52073,0.89945 1.26238,1.65687 0.75743,0.74165 1.68844,1.27817 v 3.8187 q -1.8778,0.64697 -3.376874,1.76733 -1.499078,1.12037 -2.540543,2.61944 -1.041464,1.4833 -1.609536,3.2822 -0.552292,1.79889 -0.552292,3.77136 h -2.01981 q 0,-2.06715 0.552292,-3.99228 0.568072,-1.92513 1.609536,-3.58201 1.041465,-1.65687 2.540543,-2.98237 1.499078,-1.3255 3.376874,-2.20917 v -1.45174 q -0.94679,-0.71009 -1.704219,-1.59376 -0.741649,-0.89944 -1.262381,-1.92513 -0.520733,-1.02568 -0.804769,-2.16183 -0.268256,-1.13614 -0.268256,-2.31962 0,-1.38862 0.362935,-2.68256 0.362935,-1.29394 1.009905,-2.41431 0.66275,-1.12036 1.577977,-2.03559 0.931008,-0.931 2.051368,-1.57797 1.12037,-0.662754 2.41431,-1.025688 1.29394,-0.362935 2.68256,-0.362935 1.38862,0 2.68256,0.362935 1.29394,0.362934 2.4143,1.025688 1.12036,0.64697 2.03559,1.57797 0.93101,0.91523 1.57798,2.03559 0.66275,1.12037 1.02568,2.41431 0.36294,1.29394 0.36294,2.68256 0,1.18348 -0.28404,2.31962 -0.26825,1.13615 -0.78899,2.16183 -0.52073,1.02569 -1.27816,1.92513 -0.74165,0.88367 -1.68843,1.59376 z"
           style="fill:#ff0000;stroke-width:0.80792409"
           id="path4710" />
      </g>
      <path
         style="fill:none;fill-opacity:1;stroke:#1a1a1a;stroke-width:0.21639301;stroke-miterlimit:4;stroke-dasharray:none"
         d="M 129.2922,116.98884 A 22.608381,22.608381 0 0 1 106.68382,139.59722 22.608381,22.608381 0 0 1 84.075441,116.98884 22.608381,22.608381 0 0 1 106.68382,94.380457 22.608381,22.608381 0 0 1 129.2922,116.98884 Z"
         id="circle4572" />
    </g>
    <g
       transform="matrix(0.41929731,0,0,0.41929731,89.750986,85.376756)"
       id="g4582">
      <g
         aria-label=""
         style="font-style:normal;font-weight:normal;font-size:32.3169632px;line-height:1.25;font-family:sans-serif;letter-spacing:0px;word-spacing:0px;fill:#ff0000;fill-opacity:1;stroke:none;stroke-width:0.80792409"
         id="text4578">
        <path
           d="m 105.67392,116.892 h 2.01981 v 2.01981 h -2.01981 z m 1.00991,-12.11886 q 0.83632,0 1.56219,0.31559 0.74165,0.3156 1.29394,0.86789 0.5523,0.55229 0.86789,1.29394 0.3156,0.72587 0.3156,1.5622 0,0.74165 -0.22092,1.29394 -0.22092,0.53651 -0.56807,0.97834 -0.33138,0.44184 -0.72587,0.80477 -0.39449,0.34716 -0.74165,0.69431 -0.33137,0.34716 -0.55229,0.71009 -0.22092,0.36294 -0.22092,0.82055 v 0.75743 h -2.01981 v -0.75743 q 0,-0.72587 0.22092,-1.27816 0.22091,-0.55229 0.55229,-0.99413 0.34715,-0.44183 0.74165,-0.78899 0.39449,-0.36293 0.72587,-0.71008 0.34715,-0.34716 0.56807,-0.71009 0.22092,-0.36294 0.22092,-0.82055 0,-0.42606 -0.1578,-0.78899 -0.1578,-0.36294 -0.44183,-0.63119 -0.26826,-0.28404 -0.6312,-0.44183 -0.36293,-0.1578 -0.78898,-0.1578 -0.42606,0 -0.78899,0.1578 -0.36294,0.15779 -0.64697,0.44183 -0.26826,0.26825 -0.42606,0.63119 -0.15779,0.36293 -0.15779,0.78899 h -2.01981 q 0,-0.83633 0.31559,-1.5622 0.3156,-0.74165 0.86789,-1.29394 0.55229,-0.55229 1.27816,-0.86789 0.74165,-0.31559 1.57798,-0.31559 z m 6.05943,13.4917 q 1.87779,0.88367 3.37687,2.20917 1.49908,1.3255 2.54054,2.98237 1.04146,1.65688 1.59376,3.58201 0.56807,1.92513 0.56807,3.99228 h -2.01981 q 0,-1.95669 -0.56807,-3.75558 -0.5523,-1.81468 -1.59376,-3.31376 -1.04147,-1.49907 -2.54054,-2.63522 -1.49908,-1.13614 -3.37687,-1.76733 v -3.78714 q 0.931,-0.53652 1.67265,-1.27817 0.75743,-0.75742 1.27816,-1.65687 0.52074,-0.89945 0.80477,-1.90935 0.28404,-1.02569 0.28404,-2.11449 0,-1.67266 -0.64697,-3.14018 -0.63119,-1.46751 -1.73578,-2.55632 -1.0888,-1.10458 -2.55632,-1.73577 -1.46752,-0.64697 -3.14017,-0.64697 -1.67266,0 -3.14018,0.64697 -1.46752,0.63119 -2.5721,1.73577 -1.088803,1.08881 -1.735774,2.55632 -0.63119,1.46752 -0.63119,3.14018 0,1.0888 0.284035,2.11449 0.284036,1.0099 0.804769,1.90935 0.52073,0.89945 1.26238,1.65687 0.75743,0.74165 1.68844,1.27817 v 3.8187 q -1.8778,0.64697 -3.376874,1.76733 -1.499078,1.12037 -2.540543,2.61944 -1.041464,1.4833 -1.609536,3.2822 -0.552292,1.79889 -0.552292,3.77136 h -2.01981 q 0,-2.06715 0.552292,-3.99228 0.568072,-1.92513 1.609536,-3.58201 1.041465,-1.65687 2.540543,-2.98237 1.499078,-1.3255 3.376874,-2.20917 v -1.45174 q -0.94679,-0.71009 -1.704219,-1.59376 -0.741649,-0.89944 -1.262381,-1.92513 -0.520733,-1.02568 -0.804769,-2.16183 -0.268256,-1.13614 -0.268256,-2.31962 0,-1.38862 0.362935,-2.68256 0.362935,-1.29394 1.009905,-2.41431 0.66275,-1.12036 1.577977,-2.03559 0.931008,-0.931 2.051368,-1.57797 1.12037,-0.662754 2.41431,-1.025688 1.29394,-0.362935 2.68256,-0.362935 1.38862,0 2.68256,0.362935 1.29394,0.362934 2.4143,1.025688 1.12036,0.64697 2.03559,1.57797 0.93101,0.91523 1.57798,2.03559 0.66275,1.12037 1.02568,2.41431 0.36294,1.29394 0.36294,2.68256 0,1.18348 -0.28404,2.31962 -0.26825,1.13615 -0.78899,2.16183 -0.52073,1.02569 -1.27816,1.92513 -0.74165,0.88367 -1.68843,1.59376 z"
           style="fill:#ff0000;stroke-width:0.80792409"
           id="path4706" />
      </g>
      <path
         style="fill:none;fill-opacity:1;stroke:#1a1a1a;stroke-width:0.21639301;stroke-miterlimit:4;stroke-dasharray:none"
         d="M 129.2922,116.98884 A 22.608381,22.608381 0 0 1 106.68382,139.59722 22.608381,22.608381 0 0 1 84.075441,116.98884 22.608381,22.608381 0 0 1 106.68382,94.380457 22.608381,22.608381 0 0 1 129.2922,116.98884 Z"
         id="circle4580" />
    </g>
    <g
       transform="matrix(0.41929731,0,0,0.41929731,109.33022,65.797577)"
       id="g4590">
      <g
         aria-label=""
         style="font-style:normal;font-weight:normal;font-size:32.3169632px;line-height:1.25;font-family:sans-serif;letter-spacing:0px;word-spacing:0px;fill:#ff0000;fill-opacity:1;stroke:none;stroke-width:0.80792409"
         id="text4586">
        <path
           d="m 105.67392,116.892 h 2.01981 v 2.01981 h -2.01981 z m 1.00991,-12.11886 q 0.83632,0 1.56219,0.31559 0.74165,0.3156 1.29394,0.86789 0.5523,0.55229 0.86789,1.29394 0.3156,0.72587 0.3156,1.5622 0,0.74165 -0.22092,1.29394 -0.22092,0.53651 -0.56807,0.97834 -0.33138,0.44184 -0.72587,0.80477 -0.39449,0.34716 -0.74165,0.69431 -0.33137,0.34716 -0.55229,0.71009 -0.22092,0.36294 -0.22092,0.82055 v 0.75743 h -2.01981 v -0.75743 q 0,-0.72587 0.22092,-1.27816 0.22091,-0.55229 0.55229,-0.99413 0.34715,-0.44183 0.74165,-0.78899 0.39449,-0.36293 0.72587,-0.71008 0.34715,-0.34716 0.56807,-0.71009 0.22092,-0.36294 0.22092,-0.82055 0,-0.42606 -0.1578,-0.78899 -0.1578,-0.36294 -0.44183,-0.63119 -0.26826,-0.28404 -0.6312,-0.44183 -0.36293,-0.1578 -0.78898,-0.1578 -0.42606,0 -0.78899,0.1578 -0.36294,0.15779 -0.64697,0.44183 -0.26826,0.26825 -0.42606,0.63119 -0.15779,0.36293 -0.15779,0.78899 h -2.01981 q 0,-0.83633 0.31559,-1.5622 0.3156,-0.74165 0.86789,-1.29394 0.55229,-0.55229 1.27816,-0.86789 0.74165,-0.31559 1.57798,-0.31559 z m 6.05943,13.4917 q 1.87779,0.88367 3.37687,2.20917 1.49908,1.3255 2.54054,2.98237 1.04146,1.65688 1.59376,3.58201 0.56807,1.92513 0.56807,3.99228 h -2.01981 q 0,-1.95669 -0.56807,-3.75558 -0.5523,-1.81468 -1.59376,-3.31376 -1.04147,-1.49907 -2.54054,-2.63522 -1.49908,-1.13614 -3.37687,-1.76733 v -3.78714 q 0.931,-0.53652 1.67265,-1.27817 0.75743,-0.75742 1.27816,-1.65687 0.52074,-0.89945 0.80477,-1.90935 0.28404,-1.02569 0.28404,-2.11449 0,-1.67266 -0.64697,-3.14018 -0.63119,-1.46751 -1.73578,-2.55632 -1.0888,-1.10458 -2.55632,-1.73577 -1.46752,-0.64697 -3.14017,-0.64697 -1.67266,0 -3.14018,0.64697 -1.46752,0.63119 -2.5721,1.73577 -1.088803,1.08881 -1.735774,2.55632 -0.63119,1.46752 -0.63119,3.14018 0,1.0888 0.284035,2.11449 0.284036,1.0099 0.804769,1.90935 0.52073,0.89945 1.26238,1.65687 0.75743,0.74165 1.68844,1.27817 v 3.8187 q -1.8778,0.64697 -3.376874,1.76733 -1.499078,1.12037 -2.540543,2.61944 -1.041464,1.4833 -1.609536,3.2822 -0.552292,1.79889 -0.552292,3.77136 h -2.01981 q 0,-2.06715 0.552292,-3.99228 0.568072,-1.92513 1.609536,-3.58201 1.041465,-1.65687 2.540543,-2.98237 1.499078,-1.3255 3.376874,-2.20917 v -1.45174 q -0.94679,-0.71009 -1.704219,-1.59376 -0.741649,-0.89944 -1.262381,-1.92513 -0.520733,-1.02568 -0.804769,-2.16183 -0.268256,-1.13614 -0.268256,-2.31962 0,-1.38862 0.362935,-2.68256 0.362935,-1.29394 1.009905,-2.41431 0.66275,-1.12036 1.577977,-2.03559 0.931008,-0.931 2.051368,-1.57797 1.12037,-0.662754 2.41431,-1.025688 1.29394,-0.362935 2.68256,-0.362935 1.38862,0 2.68256,0.362935 1.29394,0.362934 2.4143,1.025688 1.12036,0.64697 2.03559,1.57797 0.93101,0.91523 1.57798,2.03559 0.66275,1.12037 1.02568,2.41431 0.36294,1.29394 0.36294,2.68256 0,1.18348 -0.28404,2.31962 -0.26825,1.13615 -0.78899,2.16183 -0.52073,1.02569 -1.27816,1.92513 -0.74165,0.88367 -1.68843,1.59376 z"
           style="fill:#ff0000;stroke-width:0.80792409"
           id="path4702" />
      </g>
      <path
         style="fill:none;fill-opacity:1;stroke:#1a1a1a;stroke-width:0.21639301;stroke-miterlimit:4;stroke-dasharray:none"
         d="M 129.2922,116.98884 A 22.608381,22.608381 0 0 1 106.68382,139.59722 22.608381,22.608381 0 0 1 84.075441,116.98884 22.608381,22.608381 0 0 1 106.68382,94.380457 22.608381,22.608381 0 0 1 129.2922,116.98884 Z"
         id="circle4588" />
    </g>
    <g
       id="g4598"
       transform="matrix(0.41929731,0,0,0.41929731,109.33022,85.376756)">
      <g
         aria-label=""
         style="font-style:normal;font-weight:normal;font-size:32.3169632px;line-height:1.25;font-family:sans-serif;letter-spacing:0px;word-spacing:0px;fill:#ff0000;fill-opacity:1;stroke:none;stroke-width:0.80792409"
         id="text4594">
        <path
           d="m 105.67392,116.892 h 2.01981 v 2.01981 h -2.01981 z m 1.00991,-12.11886 q 0.83632,0 1.56219,0.31559 0.74165,0.3156 1.29394,0.86789 0.5523,0.55229 0.86789,1.29394 0.3156,0.72587 0.3156,1.5622 0,0.74165 -0.22092,1.29394 -0.22092,0.53651 -0.56807,0.97834 -0.33138,0.44184 -0.72587,0.80477 -0.39449,0.34716 -0.74165,0.69431 -0.33137,0.34716 -0.55229,0.71009 -0.22092,0.36294 -0.22092,0.82055 v 0.75743 h -2.01981 v -0.75743 q 0,-0.72587 0.22092,-1.27816 0.22091,-0.55229 0.55229,-0.99413 0.34715,-0.44183 0.74165,-0.78899 0.39449,-0.36293 0.72587,-0.71008 0.34715,-0.34716 0.56807,-0.71009 0.22092,-0.36294 0.22092,-0.82055 0,-0.42606 -0.1578,-0.78899 -0.1578,-0.36294 -0.44183,-0.63119 -0.26826,-0.28404 -0.6312,-0.44183 -0.36293,-0.1578 -0.78898,-0.1578 -0.42606,0 -0.78899,0.1578 -0.36294,0.15779 -0.64697,0.44183 -0.26826,0.26825 -0.42606,0.63119 -0.15779,0.36293 -0.15779,0.78899 h -2.01981 q 0,-0.83633 0.31559,-1.5622 0.3156,-0.74165 0.86789,-1.29394 0.55229,-0.55229 1.27816,-0.86789 0.74165,-0.31559 1.57798,-0.31559 z m 6.05943,13.4917 q 1.87779,0.88367 3.37687,2.20917 1.49908,1.3255 2.54054,2.98237 1.04146,1.65688 1.59376,3.58201 0.56807,1.92513 0.56807,3.99228 h -2.01981 q 0,-1.95669 -0.56807,-3.75558 -0.5523,-1.81468 -1.59376,-3.31376 -1.04147,-1.49907 -2.54054,-2.63522 -1.49908,-1.13614 -3.37687,-1.76733 v -3.78714 q 0.931,-0.53652 1.67265,-1.27817 0.75743,-0.75742 1.27816,-1.65687 0.52074,-0.89945 0.80477,-1.90935 0.28404,-1.02569 0.28404,-2.11449 0,-1.67266 -0.64697,-3.14018 -0.63119,-1.46751 -1.73578,-2.55632 -1.0888,-1.10458 -2.55632,-1.73577 -1.46752,-0.64697 -3.14017,-0.64697 -1.67266,0 -3.14018,0.64697 -1.46752,0.63119 -2.5721,1.73577 -1.088803,1.08881 -1.735774,2.55632 -0.63119,1.46752 -0.63119,3.14018 0,1.0888 0.284035,2.11449 0.284036,1.0099 0.804769,1.90935 0.52073,0.89945 1.26238,1.65687 0.75743,0.74165 1.68844,1.27817 v 3.8187 q -1.8778,0.64697 -3.376874,1.76733 -1.499078,1.12037 -2.540543,2.61944 -1.041464,1.4833 -1.609536,3.2822 -0.552292,1.79889 -0.552292,3.77136 h -2.01981 q 0,-2.06715 0.552292,-3.99228 0.568072,-1.92513 1.609536,-3.58201 1.041465,-1.65687 2.540543,-2.98237 1.499078,-1.3255 3.376874,-2.20917 v -1.45174 q -0.94679,-0.71009 -1.704219,-1.59376 -0.741649,-0.89944 -1.262381,-1.92513 -0.520733,-1.02568 -0.804769,-2.16183 -0.268256,-1.13614 -0.268256,-2.31962 0,-1.38862 0.362935,-2.68256 0.362935,-1.29394 1.009905,-2.41431 0.66275,-1.12036 1.577977,-2.03559 0.931008,-0.931 2.051368,-1.57797 1.12037,-0.662754 2.41431,-1.025688 1.29394,-0.362935 2.68256,-0.362935 1.38862,0 2.68256,0.362935 1.29394,0.362934 2.4143,1.025688 1.12036,0.64697 2.03559,1.57797 0.93101,0.91523 1.57798,2.03559 0.66275,1.12037 1.02568,2.41431 0.36294,1.29394 0.36294,2.68256 0,1.18348 -0.28404,2.31962 -0.26825,1.13615 -0.78899,2.16183 -0.52073,1.02569 -1.27816,1.92513 -0.74165,0.88367 -1.68843,1.59376 z"
           style="fill:#ff0000;stroke-width:0.80792409"
           id="path4698" />
      </g>
      <path
         style="fill:none;fill-opacity:1;stroke:#1a1a1a;stroke-width:0.21639301;stroke-miterlimit:4;stroke-dasharray:none"
         d="M 129.2922,116.98884 A 22.608381,22.608381 0 0 1 106.68382,139.59722 22.608381,22.608381 0 0 1 84.075441,116.98884 22.608381,22.608381 0 0 1 106.68382,94.380457 22.608381,22.608381 0 0 1 129.2922,116.98884 Z"
         id="circle4596" />
    </g>
    <text
       xml:space="preserve"
       style="font-style:normal;font-weight:normal;font-size:10.58333302px;line-height:1.25;font-family:sans-serif;letter-spacing:0px;word-spacing:0px;fill:#000000;fill-opacity:1;stroke:none;stroke-width:0.26458332"
       x="47.492771"
       y="98.418739"
       id="text4602"><tspan
         sodipodi:role="line"
         id="tspan4600"
         x="47.492771"
         y="98.418739"
         style="stroke-width:0.26458332">blk=cut  red=engrave</tspan></text>
    <text
       xml:space="preserve"
       style="font-style:normal;font-weight:normal;font-size:10.58333302px;line-height:1.25;font-family:sans-serif;letter-spacing:0px;word-spacing:0px;fill:#000000;fill-opacity:1;stroke:none;stroke-width:0.26458332"
       x="52.882622"
       y="154.54535"
       id="text4606"><tspan
         sodipodi:role="line"
         id="tspan4604"
         x="52.882622"
         y="154.54535"
         style="stroke-width:0.26458332">0.75in diameter per</tspan></text>
  </g>
</svg>
