  0
SECTION
  2
HEADER
  9
$ACADVER
  1
AC1014
  9
$ACADMAINTVER
 70
     9
  9
$DWGCODEPAGE
  3
ANSI_1252
  9
$INSBASE
 10
0.0
 20
0.0
 30
0.0
  9
$EXTMIN
 10
0.128846
 20
0.124853
 30
0.0
  9
$EXTMAX
 10
61.675786
 20
124.290669
 30
0.0
  9
$LIMMIN
 10
0.0
 20
0.0
  9
$LIMMAX
 10
12.0
 20
9.0
  9
$ORTHOMODE
 70
     0
  9
$REGENMODE
 70
     1
  9
$FILLMODE
 70
     1
  9
$QTEXTMODE
 70
     0
  9
$MIRRTEXT
 70
     1
  9
$DRAGMODE
 70
     2
  9
$LTSCALE
 40
1.0
  9
$OSMODE
 70
   511
  9
$ATTMODE
 70
     1
  9
$TEXTSIZE
 40
2.5
  9
$TRACEWID
 40
0.05
  9
$TEXTSTYLE
  7
STANDARD
  9
$CLAYER
  8
0
  9
$CELTYPE
  6
BYBLOCK
  9
$CECOLOR
 62
   256
  9
$CELTSCALE
 40
1.0
  9
$DELOBJ
 70
     1
  9
$DISPSILH
 70
     0
  9
$DIMSCALE
 40
1.0
  9
$DIMASZ
 40
0.18
  9
$DIMEXO
 40
0.0625
  9
$DIMDLI
 40
0.38
  9
$DIMRND
 40
0.0
  9
$DIMDLE
 40
0.0
  9
$DIMEXE
 40
0.18
  9
$DIMTP
 40
0.0
  9
$DIMTM
 40
0.0
  9
$DIMTXT
 40
0.18
  9
$DIMCEN
 40
0.09
  9
$DIMTSZ
 40
0.0
  9
$DIMTOL
 70
     0
  9
$DIMLIM
 70
     0
  9
$DIMTIH
 70
     1
  9
$DIMTOH
 70
     1
  9
$DIMSE1
 70
     0
  9
$DIMSE2
 70
     0
  9
$DIMTAD
 70
     0
  9
$DIMZIN
 70
     0
  9
$DIMBLK
  1

  9
$DIMASO
 70
     1
  9
$DIMSHO
 70
     1
  9
$DIMPOST
  1

  9
$DIMAPOST
  1

  9
$DIMALT
 70
     0
  9
$DIMALTD
 70
     2
  9
$DIMALTF
 40
25.4
  9
$DIMLFAC
 40
1.0
  9
$DIMTOFL
 70
     0
  9
$DIMTVP
 40
0.0
  9
$DIMTIX
 70
     0
  9
$DIMSOXD
 70
     0
  9
$DIMSAH
 70
     0
  9
$DIMBLK1
  1

  9
$DIMBLK2
  1

  9
$DIMSTYLE
  2
ISO-25
  9
$DIMCLRD
 70
     0
  9
$DIMCLRE
 70
     0
  9
$DIMCLRT
 70
     0
  9
$DIMTFAC
 40
1.0
  9
$DIMGAP
 40
0.09
  9
$DIMJUST
 70
     0
  9
$DIMSD1
 70
     0
  9
$DIMSD2
 70
     0
  9
$DIMTOLJ
 70
     1
  9
$DIMTZIN
 70
     0
  9
$DIMALTZ
 70
     0
  9
$DIMALTTZ
 70
     0
  9
$DIMFIT
 70
     5
  9
$DIMUPT
 70
     0
  9
$DIMUNIT
 70
     2
  9
$DIMDEC
 70
     4
  9
$DIMTDEC
 70
     4
  9
$DIMALTU
 70
     2
  9
$DIMALTTD
 70
     2
  9
$DIMTXSTY
  7
STANDARD
  9
$DIMAUNIT
 70
     0
  9
$LUNITS
 70
     2
  9
$LUPREC
 70
     4
  9
$SKETCHINC
 40
0.1
  9
$FILLETRAD
 40
0.5
  9
$AUNITS
 70
     0
  9
$AUPREC
 70
     0
  9
$MENU
  1
.
  9
$ELEVATION
 40
0.0
  9
$PELEVATION
 40
0.0
  9
$THICKNESS
 40
0.0
  9
$LIMCHECK
 70
     0
  9
$CHAMFERA
 40
0.0
  9
$CHAMFERB
 40
0.0
  9
$CHAMFERC
 40
0.0
  9
$CHAMFERD
 40
0.0
  9
$SKPOLY
 70
     0
  9
$TDCREATE
 40
2447892.75
  9
$TDUPDATE
 40
2457000.926127662
  9
$TDINDWG
 40
0.0264375926
  9
$TDUSRTIMER
 40
2457001.216430359
  9
$USRTIMER
 70
     1
  9
$ANGBASE
 50
0.0
  9
$ANGDIR
 70
     0
  9
$PDMODE
 70
     0
  9
$PDSIZE
 40
0.0
  9
$PLINEWID
 40
0.0
  9
$COORDS
 70
     1
  9
$SPLFRAME
 70
     0
  9
$SPLINETYPE
 70
     6
  9
$SPLINESEGS
 70
     8
  9
$ATTDIA
 70
     0
  9
$ATTREQ
 70
     1
  9
$HANDLING
 70
     1
  9
$HANDSEED
  5
100D4
  9
$SURFTAB1
 70
     6
  9
$SURFTAB2
 70
     6
  9
$SURFTYPE
 70
     6
  9
$SURFU
 70
     6
  9
$SURFV
 70
     6
  9
$UCSNAME
  2

  9
$UCSORG
 10
0.0
 20
0.0
 30
0.0
  9
$UCSXDIR
 10
1.0
 20
0.0
 30
0.0
  9
$UCSYDIR
 10
0.0
 20
1.0
 30
0.0
  9
$PUCSNAME
  2

  9
$PUCSORG
 10
0.0
 20
0.0
 30
0.0
  9
$PUCSXDIR
 10
1.0
 20
0.0
 30
0.0
  9
$PUCSYDIR
 10
0.0
 20
1.0
 30
0.0
  9
$USERI1
 70
     0
  9
$USERI2
 70
     0
  9
$USERI3
 70
     0
  9
$USERI4
 70
     0
  9
$USERI5
 70
     0
  9
$USERR1
 40
0.0
  9
$USERR2
 40
0.0
  9
$USERR3
 40
0.0
  9
$USERR4
 40
0.0
  9
$USERR5
 40
0.0
  9
$WORLDVIEW
 70
     1
  9
$SHADEDGE
 70
     3
  9
$SHADEDIF
 70
    70
  9
$TILEMODE
 70
     1
  9
$MAXACTVP
 70
    64
  9
$PINSBASE
 10
0.0
 20
0.0
 30
0.0
  9
$PLIMCHECK
 70
     0
  9
$PEXTMIN
 10
1.000000000000000E+20
 20
1.000000000000000E+20
 30
1.000000000000000E+20
  9
$PEXTMAX
 10
-1.000000000000000E+20
 20
-1.000000000000000E+20
 30
-1.000000000000000E+20
  9
$PLIMMIN
 10
0.0
 20
0.0
  9
$PLIMMAX
 10
0.0
 20
0.0
  9
$UNITMODE
 70
     0
  9
$VISRETAIN
 70
     1
  9
$PLINEGEN
 70
     0
  9
$PSLTSCALE
 70
     1
  9
$TREEDEPTH
 70
  3020
  9
$PICKSTYLE
 70
     1
  9
$CMLSTYLE
  2

  9
$CMLJUST
 70
     0
  9
$CMLSCALE
 40
1.0
  9
$PROXYGRAPHICS
 70
     1
  9
$MEASUREMENT
 70
     1
  0
ENDSEC
  0
SECTION
  2
CLASSES
  0
CLASS
  1
SCALE
  2
AcDbScale
  3
ObjectDBX Classes
 90
     1153
280
     0
281
     0
  0
CLASS
  1
VISUALSTYLE
  2
AcDbVisualStyle
  3
ObjectDBX Classes
 90
     4095
280
     0
281
     0
  0
CLASS
  1
MATERIAL
  2
AcDbMaterial
  3
ObjectDBX Classes
 90
     1153
280
     0
281
     0
  0
CLASS
  1
TABLESTYLE
  2
AcDbTableStyle
  3
ObjectDBX Classes
 90
     4095
280
     0
281
     0
  0
CLASS
  1
SUN
  2
AcDbSun
  3
SCENEOE
 90
     1153
280
     0
281
     0
  0
CLASS
  1
RASTERVARIABLES
  2
AcDbRasterVariables
  3
ISM
 90
        0
280
     0
281
     0
  0
CLASS
  1
XRECORD
  2
AcDbXrecord
  3
ObjectDBX Classes
 90
        0
280
     0
281
     0
  0
CLASS
  1
LWPOLYLINE
  2
AcDbPolyline
  3
ObjectDBX Classes
 90
        0
280
     0
281
     1
  0
CLASS
  1
HATCH
  2
AcDbHatch
  3
ObjectDBX Classes
 90
        0
280
     0
281
     1
  0
ENDSEC
  0
SECTION
  2
TABLES
  0
TABLE
  2
VPORT
  5
8
330
0
100
AcDbSymbolTable
 70
     1
  0
VPORT
  5
2E
330
8
100
AcDbSymbolTableRecord
100
AcDbViewportTableRecord
  2
*ACTIVE
 70
     0
 10
0.0
 20
0.0
 11
1.0
 21
1.0
 12
34.64073922074236
 22
35.79080802807071
 13
0.0
 23
0.0
 14
10.0
 24
10.0
 15
10.0
 25
10.0
 16
0.0
 26
0.0
 36
1.0
 17
0.0
 27
0.0
 37
0.0
 40
113.9736576000001
 41
2.094117647058824
 42
50.0
 43
0.0
 44
0.0
 50
0.0
 51
0.0
 71
    16
 72
   100
 73
     1
 74
     3
 75
     0
 76
     0
 77
     0
 78
     0
  0
ENDTAB
  0
TABLE
  2
LTYPE
  5
5
330
0
100
AcDbSymbolTable
 70
     1
  0
LTYPE
  5
14
330
5
100
AcDbSymbolTableRecord
100
AcDbLinetypeTableRecord
  2
BYBLOCK
 70
     0
  3

 72
    65
 73
     0
 40
0.0
  0
LTYPE
  5
15
330
5
100
AcDbSymbolTableRecord
100
AcDbLinetypeTableRecord
  2
BYLAYER
 70
     0
  3

 72
    65
 73
     0
 40
0.0
  0
LTYPE
  5
16
330
5
100
AcDbSymbolTableRecord
100
AcDbLinetypeTableRecord
  2
CONTINUOUS
 70
     0
  3
Solid line
 72
    65
 73
     0
 40
0.0
  0
ENDTAB
  0
TABLE
  2
LAYER
  5
2
330
0
100
AcDbSymbolTable
 70
     1
  0
LAYER
  5
50
330
2
100
AcDbSymbolTableRecord
100
AcDbLayerTableRecord
  2
0
 70
     0
 62
     7
  6
CONTINUOUS
  0
ENDTAB
  0
TABLE
  2
STYLE
  5
3
330
0
100
AcDbSymbolTable
 70
     1
  0
STYLE
  5
11
330
3
100
AcDbSymbolTableRecord
100
AcDbTextStyleTableRecord
  2
STANDARD
 70
     0
 40
0.0
 41
1.0
 50
0.0
 71
     0
 42
2.5
  3
txt
  4

  0
ENDTAB
  0
TABLE
  2
VIEW
  5
6
330
0
100
AcDbSymbolTable
 70
     0
  0
ENDTAB
  0
TABLE
  2
UCS
  5
7
330
0
100
AcDbSymbolTable
 70
     0
  0
ENDTAB
  0
TABLE
  2
APPID
  5
9
330
0
100
AcDbSymbolTable
 70
     1
  0
APPID
  5
12
330
9
100
AcDbSymbolTableRecord
100
AcDbRegAppTableRecord
  2
ACAD
 70
     0
  0
ENDTAB
  0
TABLE
  2
DIMSTYLE
  5
A
330
0
100
AcDbSymbolTable
 70
     1
  0
DIMSTYLE
105
27
330
A
100
AcDbSymbolTableRecord
100
AcDbDimStyleTableRecord
  2
ISO-25
 70
     0
  3

  4

  5

  6

  7

 40
1.0
 41
2.5
 42
0.625
 43
3.75
 44
1.25
 45
0.0
 46
0.0
 47
0.0
 48
0.0
140
2.5
141
2.5
142
0.0
143
0.03937007874016
144
1.0
145
0.0
146
1.0
147
0.625
 71
     0
 72
     0
 73
     0
 74
     0
 75
     0
 76
     0
 77
     1
 78
     8
170
     0
171
     3
172
     1
173
     0
174
     0
175
     0
176
     0
177
     0
178
     0
270
     2
271
     2
272
     2
273
     2
274
     3
340
11
275
     0
280
     0
281
     0
282
     0
283
     0
284
     8
285
     0
286
     0
287
     3
288
     0
  0
ENDTAB
  0
TABLE
  2
BLOCK_RECORD
  5
1
330
0
100
AcDbSymbolTable
 70
     0
  0
BLOCK_RECORD
  5
1F
330
1
100
AcDbSymbolTableRecord
100
AcDbBlockTableRecord
  2
*MODEL_SPACE
  0
BLOCK_RECORD
  5
1B
330
1
100
AcDbSymbolTableRecord
100
AcDbBlockTableRecord
  2
*PAPER_SPACE
  0
ENDTAB
  0
ENDSEC
  0
SECTION
  2
BLOCKS
  0
BLOCK
  5
20
330
1F
100
AcDbEntity
  8
0
100
AcDbBlockBegin
  2
*MODEL_SPACE
 70
     0
 10
0.0
 20
0.0
 30
0.0
  3
*MODEL_SPACE
  1

  0
ENDBLK
  5
21
330
1F
100
AcDbEntity
  8
0
100
AcDbBlockEnd
  0
BLOCK
  5
1C
330
1B
100
AcDbEntity
 67
     1
  8
0
100
AcDbBlockBegin
  2
*PAPER_SPACE
 70
     0
 10
0.0
 20
0.0
 30
0.0
  3
*PAPER_SPACE
  1

  0
ENDBLK
  5
1D
330
1B
100
AcDbEntity
 67
     1
  8
0
100
AcDbBlockEnd
  0
ENDSEC
  0
SECTION
  2
ENTITIES
  0
SPLINE
  5
100
330
1F
100
AcDbEntity
  8
0
 62
     7
100
AcDbSpline
 70
     0
 71
     3
 72
    10
 73
     6
 74
     4
 42
0.000000001
 43
0.0000001
 44
0.0000000001
 40
0.0
 40
0.0
 40
0.0
 40
0.0
 40
7.535392152708776
 40
16.27709801718952
 40
23.81251098347352
 40
23.81251098347352
 40
23.81251098347352
 40
23.81251098347352
 10
30.902522
 20
124.290669
 30
0.0
 10
28.39053383605811
 20
124.3186480679476
 30
0.0
 10
22.96442239634968
 20
124.3790852717698
 30
0.0
 10
15.03023054711312
 20
123.9229918058853
 30
0.0
 10
9.646761022921503
 20
123.2413395809506
 30
0.0
 10
7.15451
 20
122.925772
 30
0.0
 11
30.902522
 21
124.290669
 31
0.0
 11
23.367131
 21
124.294837
 31
0.0
 11
14.63983
 21
123.793201
 31
0.0
 11
7.15451
 21
122.925772
 31
0.0
  0
SPLINE
  5
101
330
1F
100
AcDbEntity
  8
0
 62
     7
100
AcDbSpline
 70
     0
 71
     3
 72
    10
 73
     6
 74
     4
 42
0.000000001
 43
0.0000001
 44
0.0000000001
 40
0.0
 40
0.0
 40
0.0
 40
0.0
 40
0.6712303339763488
 40
1.446505794329632
 40
2.117378777303311
 40
2.117378777303311
 40
2.117378777303311
 40
2.117378777303311
 10
7.15451
 20
122.925772
 30
0.0
 10
6.933962405801653
 20
122.8878075091029
 30
0.0
 10
6.458680886500392
 20
122.8059937809655
 30
0.0
 10
5.774646524733567
 20
122.6265397173925
 30
0.0
 10
5.320733659648639
 20
122.4639280727166
 30
0.0
 10
5.110162
 20
122.388492
 30
0.0
 11
7.15451
 21
122.925772
 31
0.0
 11
6.494585
 21
122.803097
 31
0.0
 11
5.744734
 21
122.606182
 31
0.0
 11
5.110162
 21
122.388492
 31
0.0
  0
SPLINE
  5
102
330
1F
100
AcDbEntity
  8
0
 62
     7
100
AcDbSpline
 70
     0
 71
     3
 72
    10
 73
     6
 74
     4
 42
0.000000001
 43
0.0000001
 44
0.0000000001
 40
0.0
 40
0.0
 40
0.0
 40
0.0
 40
1.942494615099354
 40
4.049333275329417
 40
5.99164512796946
 40
5.99164512796946
 40
5.99164512796946
 40
5.99164512796946
 10
5.110162
 20
122.388492
 30
0.0
 10
4.509734746369968
 20
122.1400518341062
 30
0.0
 10
3.258081311328456
 20
121.622152313118
 30
0.0
 10
1.709312958819374
 20
120.2825610304227
 30
0.0
 10
1.016331818021815
 20
119.1187576249854
 30
0.0
 10
0.68392
 20
118.5605
 30
0.0
 11
5.110162
 21
122.388492
 31
0.0
 11
3.356043
 21
121.554015
 31
0.0
 11
1.762535
 21
120.175791
 31
0.0
 11
0.68392
 21
118.5605
 31
0.0
  0
LINE
  5
103
330
1F
100
AcDbEntity
  8
0
 62
     7
100
AcDbLine
 10
0.128846
 20
116.022617
 30
0.0
 11
0.128846
 21
9.195932
 31
0.0
  0
SPLINE
  5
104
330
1F
100
AcDbEntity
  8
0
 62
     7
100
AcDbSpline
 70
     0
 71
     3
 72
    10
 73
     6
 74
     4
 42
0.000000001
 43
0.0000001
 44
0.0000000001
 40
0.0
 40
0.0
 40
0.0
 40
0.0
 40
0.8362242563074921
 40
1.780797261733751
 40
2.61728302304831
 40
2.61728302304831
 40
2.61728302304831
 40
2.61728302304831
 10
0.68392
 20
118.5605
 30
0.0
 10
0.5761914090325775
 20
118.3031049658747
 30
0.0
 10
0.3467759402056634
 20
117.7549644778456
 30
0.0
 10
0.1590793415455815
 20
116.8954868628352
 30
0.0
 10
0.1385076349593209
 20
116.301559040495
 30
0.0
 10
0.128846
 20
116.022617
 30
0.0
 11
0.68392
 21
118.5605
 31
0.0
 11
0.383161
 21
117.780234
 31
0.0
 11
0.181467
 21
116.857446
 31
0.0
 11
0.128846
 21
116.022617
 31
0.0
  0
SPLINE
  5
105
330
1F
100
AcDbEntity
  8
0
 62
     7
100
AcDbSpline
 70
     0
 71
     3
 72
    10
 73
     6
 74
     4
 42
0.000000001
 43
0.0000001
 44
0.0000000001
 40
0.0
 40
0.0
 40
0.0
 40
0.0
 40
0.6615680598124439
 40
1.420755743886679
 40
2.082265530633632
 40
2.082265530633632
 40
2.082265530633632
 40
2.082265530633632
 10
0.128846
 20
9.195932
 30
0.0
 10
0.1343710685578217
 20
8.975391587299072
 30
0.0
 10
0.1462364734431757
 20
8.501768271516843
 30
0.0
 10
0.2432707728401959
 20
7.812093524534001
 30
0.0
 10
0.3626501741001368
 20
7.353626779890543
 30
0.0
 10
0.418236
 20
7.140154
 30
0.0
 11
0.128846
 21
9.195932
 31
0.0
 11
0.157204
 21
8.534972
 31
0.0
 11
0.263007
 21
7.783193
 31
0.0
 11
0.418236
 21
7.140154
 31
0.0
  0
SPLINE
  5
106
330
1F
100
AcDbEntity
  8
0
 62
     7
100
AcDbSpline
 70
     0
 71
     3
 72
    10
 73
     6
 74
     4
 42
0.000000001
 43
0.0000001
 44
0.0000000001
 40
0.0
 40
0.0
 40
0.0
 40
0.0
 40
1.698456019660209
 40
3.557323026993977
 40
5.255999200009011
 40
5.255999200009011
 40
5.255999200009011
 40
5.255999200009011
 10
0.418236
 20
7.140154
 30
0.0
 10
0.6087735323306407
 20
6.605298298939098
 30
0.0
 10
1.007843948885788
 20
5.485072352856841
 30
0.0
 10
2.068179174601021
 20
4.044035666596265
 30
0.0
 10
3.019044403292628
 20
3.32975353783869
 30
0.0
 10
3.473069
 20
2.988694
 30
0.0
 11
0.418236
 21
7.140154
 31
0.0
 11
1.062472
 21
5.568622
 31
0.0
 11
2.164157
 21
4.071399
 31
0.0
 11
3.473069
 21
2.988694
 31
0.0
  0
LINE
  5
107
330
1F
100
AcDbEntity
  8
0
 62
     7
100
AcDbLine
 10
5.499488
 20
2.070505
 30
0.0
 11
7.452854
 21
1.614374
 31
0.0
  0
LINE
  5
108
330
1F
100
AcDbEntity
  8
0
 62
     7
100
AcDbLine
 10
7.452854
 20
1.614374
 30
0.0
 11
9.434477
 21
1.297841
 31
0.0
  0
LINE
  5
109
330
1F
100
AcDbEntity
  8
0
 62
     7
100
AcDbLine
 10
9.434477
 20
1.297841
 30
0.0
 11
13.472407
 21
0.888012
 31
0.0
  0
LINE
  5
10A
330
1F
100
AcDbEntity
  8
0
 62
     7
100
AcDbLine
 10
13.472407
 20
0.888012
 30
0.0
 11
17.82191
 21
0.591318
 31
0.0
  0
LINE
  5
10B
330
1F
100
AcDbEntity
  8
0
 62
     7
100
AcDbLine
 10
17.82191
 20
0.591318
 30
0.0
 11
22.175787
 21
0.364355
 31
0.0
  0
LINE
  5
10C
330
1F
100
AcDbEntity
  8
0
 62
     7
100
AcDbLine
 10
22.175787
 20
0.364355
 30
0.0
 11
26.536897
 21
0.193342
 31
0.0
  0
LINE
  5
10D
330
1F
100
AcDbEntity
  8
0
 62
     7
100
AcDbLine
 10
26.536897
 20
0.193342
 30
0.0
 11
30.902522
 21
0.124853
 31
0.0
  0
LINE
  5
10E
330
1F
100
AcDbEntity
  8
0
 62
     7
100
AcDbLine
 10
30.902522
 20
0.124853
 30
0.0
 11
34.901999
 21
0.182042
 31
0.0
  0
LINE
  5
10F
330
1F
100
AcDbEntity
  8
0
 62
     7
100
AcDbLine
 10
34.901999
 20
0.182042
 30
0.0
 11
38.898336
 21
0.330594
 31
0.0
  0
LINE
  5
110
330
1F
100
AcDbEntity
  8
0
 62
     7
100
AcDbLine
 10
38.898336
 20
0.330594
 30
0.0
 11
43.261139
 21
0.547221
 31
0.0
  0
LINE
  5
111
330
1F
100
AcDbEntity
  8
0
 62
     7
100
AcDbLine
 10
43.261139
 20
0.547221
 30
0.0
 11
47.61865
 21
0.831511
 31
0.0
  0
LINE
  5
112
330
1F
100
AcDbEntity
  8
0
 62
     7
100
AcDbLine
 10
47.61865
 20
0.831511
 30
0.0
 11
51.978631
 21
1.247817
 31
0.0
  0
LINE
  5
113
330
1F
100
AcDbEntity
  8
0
 62
     7
100
AcDbLine
 10
51.978631
 20
1.247817
 30
0.0
 11
54.15915
 21
1.577583
 31
0.0
  0
LINE
  5
114
330
1F
100
AcDbEntity
  8
0
 62
     7
100
AcDbLine
 10
54.15915
 20
1.577583
 30
0.0
 11
56.306156
 21
2.070505
 31
0.0
  0
SPLINE
  5
115
330
1F
100
AcDbEntity
  8
0
 62
     7
100
AcDbSpline
 70
     0
 71
     3
 72
    10
 73
     6
 74
     4
 42
0.000000001
 43
0.0000001
 44
0.0000000001
 40
0.0
 40
0.0
 40
0.0
 40
0.0
 40
0.7100222178643424
 40
1.522788526359595
 40
2.232727665082064
 40
2.232727665082064
 40
2.232727665082064
 40
2.232727665082064
 10
3.473069
 20
2.988694
 30
0.0
 10
3.674786137051864
 20
2.864683094183524
 30
0.0
 10
4.107409981974098
 20
2.59871622755672
 30
0.0
 10
4.788124794426896
 20
2.290376306346769
 30
0.0
 10
5.273287831525467
 20
2.140419955045062
 30
0.0
 10
5.499488
 20
2.070505
 30
0.0
 11
3.473069
 21
2.988694
 31
0.0
 11
4.0851
 21
2.628764
 31
0.0
 11
4.825435
 21
2.293364
 31
0.0
 11
5.499488
 21
2.070505
 31
0.0
  0
SPLINE
  5
116
330
1F
100
AcDbEntity
  8
0
 62
     7
100
AcDbSpline
210
0.0
220
0.0
230
1.0
 70
     8
 71
     3
 72
    22
 73
    18
 74
     0
 42
0.000000001
 43
0.0000001
 40
0.0
 40
0.0
 40
0.0
 40
0.0
 40
0.7097283773078216
 40
1.522569999913362
 40
2.232281228488053
 40
2.232281228488053
 40
2.232281228488053
 40
2.232281228488053
 40
3.930828023038322
 40
5.789772083326315
 40
7.488640326897015
 40
7.488640326897015
 40
7.488640326897015
 40
7.488640326897015
 40
8.150214350541384
 40
8.90953371193947
 40
9.570776663960135
 40
9.570776663960135
 40
9.570776663960135
 40
9.570776663960135
 10
56.306156
 20
2.070505
 30
0.0
 10
56.53224678700802
 20
2.140532280072337
 30
0.0
 10
57.017276075059
 20
2.290760788925419
 30
0.0
 10
57.69780865570563
 20
2.599084119443579
 30
0.0
 10
58.13047717891448
 20
2.864824019963904
 30
0.0
 10
58.332158
 20
2.988694
 30
0.0
 10
58.332158
 20
2.988694
 30
0.0
 10
58.78626604979357
 20
3.329572575735027
 30
0.0
 10
59.73736450609297
 20
4.043519591901122
 30
0.0
 10
60.7979841559793
 20
5.48459713205405
 30
0.0
 10
61.19678510458986
 20
6.605106651582727
 30
0.0
 10
61.387214
 20
7.140154
 30
0.0
 10
61.387214
 20
7.140154
 30
0.0
 10
61.44265540135254
 20
7.353684260499791
 30
0.0
 10
61.56172948471111
 20
7.812293159590482
 30
0.0
 10
61.65869804333681
 20
8.501928644491205
 30
0.0
 10
61.67035835933854
 20
8.975495999031383
 30
0.0
 10
61.675786
 20
9.195932
 30
0.0
  0
LINE
  5
118
330
1F
100
AcDbEntity
  8
0
 62
     7
100
AcDbLine
 10
61.675786
 20
9.195932
 30
0.0
 11
61.675786
 21
116.022617
 31
0.0
  0
SPLINE
  5
11A
330
1F
100
AcDbEntity
  8
0
 62
     7
100
AcDbSpline
 70
     0
 71
     3
 72
    10
 73
     6
 74
     4
 42
0.000000001
 43
0.0000001
 44
0.0000000001
 40
0.0
 40
0.0
 40
0.0
 40
0.0
 40
0.8365143170143587
 40
1.781090952584492
 40
2.616964673815766
 40
2.616964673815766
 40
2.616964673815766
 40
2.616964673815766
 10
61.675786
 20
116.022617
 30
0.0
 10
61.66595628292521
 20
116.3015641663498
 30
0.0
 10
61.64502702948356
 20
116.8954933605422
 30
0.0
 10
61.45718437736407
 20
117.7547509183842
 30
0.0
 10
61.2285545676921
 20
118.3030760482488
 30
0.0
 10
61.121219
 20
118.5605
 30
0.0
 11
61.675786
 21
116.022617
 31
0.0
 11
61.622713
 21
116.857446
 31
0.0
 11
61.421002
 21
117.780234
 31
0.0
 11
61.121219
 21
118.5605
 31
0.0
  0
SPLINE
  5
11B
330
1F
100
AcDbEntity
  8
0
 62
     7
100
AcDbSpline
 70
     0
 71
     3
 72
    10
 73
     6
 74
     4
 42
0.000000001
 43
0.0000001
 44
0.0000000001
 40
0.0
 40
0.0
 40
0.0
 40
0.0
 40
1.938251628368714
 40
4.045857455035796
 40
5.983847803158562
 40
5.983847803158562
 40
5.983847803158562
 40
5.983847803158562
 10
61.121219
 20
118.5605
 30
0.0
 10
60.78518687470331
 20
119.1148521920825
 30
0.0
 10
60.08376191038773
 20
120.2719929452363
 30
0.0
 10
58.53888903099102
 20
121.6084114607166
 30
0.0
 10
57.29286611050777
 20
122.135836080327
 30
0.0
 10
56.695975
 20
122.388492
 30
0.0
 11
61.121219
 21
118.5605
 31
0.0
 11
60.034376
 21
120.165365
 31
0.0
 11
58.440396
 21
121.544216
 31
0.0
 11
56.695975
 21
122.388492
 31
0.0
  0
SPLINE
  5
11C
330
1F
100
AcDbEntity
  8
0
 62
     7
100
AcDbSpline
 70
     0
 71
     3
 72
    10
 73
     6
 74
     4
 42
0.000000001
 43
0.0000001
 44
0.0000000001
 40
0.0
 40
0.0
 40
0.0
 40
0.0
 40
0.6711785136049889
 40
1.446124161586179
 40
2.117024157521494
 40
2.117024157521494
 40
2.117024157521494
 40
2.117024157521494
 10
56.695975
 20
122.388492
 30
0.0
 10
56.48529192544569
 20
122.4639160410208
 30
0.0
 10
56.03135325134572
 20
122.626425009758
 30
0.0
 10
55.34747894724921
 20
122.8060023526288
 30
0.0
 10
54.87241824158333
 20
122.8878111536793
 30
0.0
 10
54.651981
 20
122.925772
 30
0.0
 11
56.695975
 21
122.388492
 31
0.0
 11
56.06108
 21
122.606182
 31
0.0
 11
55.31157
 21
122.803097
 31
0.0
 11
54.651981
 21
122.925772
 31
0.0
  0
LINE
  5
11D
330
1F
100
AcDbEntity
  8
0
 62
     7
100
AcDbLine
 10
30.902522
 20
124.290669
 30
0.0
 11
30.902522
 21
124.290669
 31
0.0
  0
SPLINE
  5
11E
330
1F
100
AcDbEntity
  8
0
 62
     7
100
AcDbSpline
 70
     0
 71
     3
 72
    10
 73
     6
 74
     4
 42
0.000000001
 43
0.0000001
 44
0.0000000001
 40
0.0
 40
0.0
 40
0.0
 40
0.0
 40
7.533486348569965
 40
16.27824525553453
 40
23.81195315842537
 40
23.81195315842537
 40
23.81195315842537
 40
23.81195315842537
 10
54.651981
 20
122.925772
 30
0.0
 10
52.15953087072389
 20
123.2343559388186
 30
0.0
 10
46.77388170189693
 20
123.9011395242117
 30
0.0
 10
38.84064274317139
 20
124.357169434817
 30
0.0
 10
33.41398866351814
 20
124.3117084412678
 30
0.0
 10
30.902522
 20
124.290669
 30
0.0
 11
54.651981
 21
122.925772
 31
0.0
 11
47.166568
 21
123.775483
 31
0.0
 11
38.436218
 21
124.277277
 31
0.0
 11
30.902522
 21
124.290669
 31
0.0
  0
LINE
  5
11F
330
1F
100
AcDbEntity
  8
0
 62
     7
100
AcDbLine
 10
55.440086
 20
21.069656
 30
0.0
 11
55.440086
 21
21.069656
 31
0.0
  0
LINE
  5
120
330
1F
100
AcDbEntity
  8
0
 62
     7
100
AcDbLine
 10
55.440086
 20
21.069656
 30
0.0
 11
55.440086
 21
10.995769
 31
0.0
  0
SPLINE
  5
121
330
1F
100
AcDbEntity
  8
0
 62
     7
100
AcDbSpline
 70
     0
 71
     3
 72
    13
 73
     9
 74
     7
 42
0.000000001
 43
0.0000001
 44
0.0000000001
 40
0.0
 40
0.0
 40
0.0
 40
0.0
 40
1.183887239879291
 40
2.221485978408309
 40
3.244541241456204
 40
4.26774833128797
 40
5.305289218234121
 40
6.48915586075937
 40
6.48915586075937
 40
6.48915586075937
 40
6.48915586075937
 10
51.292125
 20
21.069656
 30
0.0
 10
51.34780713404503
 20
21.47328335596038
 30
0.0
 10
51.45229096988864
 20
22.23066335091617
 30
0.0
 10
52.33338528383243
 20
22.98739258603514
 30
0.0
 10
53.36615067592869
 20
23.2211446684861
 30
0.0
 10
54.39893389256354
 20
22.98744612522669
 30
0.0
 10
55.28000333737688
 20
22.23064081979831
 30
0.0
 10
55.38443217750176
 20
21.47328024028591
 30
0.0
 10
55.440086
 20
21.069656
 30
0.0
 11
51.292125
 21
21.069656
 31
0.0
 11
51.600832
 21
22.212586
 31
0.0
 11
52.370423
 21
22.908532
 31
0.0
 11
53.366106
 21
23.143601
 31
0.0
 11
54.361945
 21
22.908532
 31
0.0
 11
55.131458
 21
22.212586
 31
0.0
 11
55.440086
 21
21.069656
 31
0.0
  0
LINE
  5
122
330
1F
100
AcDbEntity
  8
0
 62
     7
100
AcDbLine
 10
53.366106
 20
8.921682
 30
0.0
 11
53.366106
 21
8.921682
 31
0.0
  0
LINE
  5
123
330
1F
100
AcDbEntity
  8
0
 62
     7
100
AcDbLine
 10
51.292125
 20
10.995769
 30
0.0
 11
51.292125
 21
21.069656
 31
0.0
  0
SPLINE
  5
124
330
1F
100
AcDbEntity
  8
0
 62
     7
100
AcDbSpline
 70
     0
 71
     3
 72
    13
 73
     9
 74
     7
 42
0.000000001
 43
0.0000001
 44
0.0000000001
 40
0.0
 40
0.0
 40
0.0
 40
0.0
 40
1.18388788180638
 40
2.221479077610395
 40
3.244696506565254
 40
4.267762110270608
 40
5.305411154852642
 40
6.489319633643548
 40
6.489319633643548
 40
6.489319633643548
 40
6.489319633643548
 10
55.440086
 20
10.995769
 30
0.0
 10
55.38442810106957
 20
10.59214106553396
 30
0.0
 10
55.27999012186749
 20
9.834762748435802
 30
0.0
 10
54.39895557299825
 20
9.077890635260617
 30
0.0
 10
53.36615067385588
 20
8.844113137677613
 30
0.0
 10
52.33336360948677
 20
9.0779441780115
 30
0.0
 10
51.45230418444021
 20
9.834740218119794
 30
0.0
 10
51.34781120989436
 20
10.59213794976639
 30
0.0
 10
51.292125
 20
10.995769
 30
0.0
 11
55.440086
 21
10.995769
 31
0.0
 11
55.131458
 21
9.852817
 31
0.0
 11
54.361945
 21
9.156796
 31
0.0
 11
53.366106
 21
8.921682
 31
0.0
 11
52.370423
 21
9.156796
 31
0.0
 11
51.600832
 21
9.852817
 31
0.0
 11
51.292125
 21
10.995769
 31
0.0
  0
LINE
  5
125
330
1F
100
AcDbEntity
  8
0
 62
     7
100
AcDbLine
 10
19.178587
 20
111.749772
 30
0.0
 11
19.178587
 21
111.749772
 31
0.0
  0
SPLINE
  5
126
330
1F
100
AcDbEntity
  8
0
 62
     7
100
AcDbSpline
 70
     0
 71
     3
 72
    10
 73
     6
 74
     4
 42
0.000000001
 43
0.0000001
 44
0.0000000001
 40
0.0
 40
0.0
 40
0.0
 40
0.0
 40
1.757363733429425
 40
3.516272760873706
 40
5.273770619956621
 40
5.273770619956621
 40
5.273770619956621
 40
5.273770619956621
 10
15.780173
 20
115.148081
 30
0.0
 10
16.36863189965746
 20
115.0551099687921
 30
0.0
 10
17.54606714564453
 20
114.8690861546162
 30
0.0
 10
18.89950142323046
 20
113.5157506699942
 30
0.0
 10
19.08558336657608
 20
112.3382740457156
 30
0.0
 10
19.178587
 20
111.749772
 30
0.0
 11
15.780173
 21
115.148081
 31
0.0
 11
17.476851
 21
114.690248
 31
0.0
 11
18.720632
 21
113.446556
 31
0.0
 11
19.178587
 21
111.749772
 31
0.0
  0
LINE
  5
127
330
1F
100
AcDbEntity
  8
0
 62
     7
100
AcDbLine
 10
19.178587
 20
100.556133
 30
0.0
 11
19.178587
 21
100.556133
 31
0.0
  0
SPLINE
  5
128
330
1F
100
AcDbEntity
  8
0
 62
     7
100
AcDbSpline
 70
     0
 71
     3
 72
    10
 73
     6
 74
     4
 42
0.000000001
 43
0.0000001
 44
0.0000000001
 40
0.0
 40
0.0
 40
0.0
 40
0.0
 40
3.731212999999997
 40
7.462424999999996
 40
11.19363899999999
 40
11.19363899999999
 40
11.19363899999999
 40
11.19363899999999
 10
19.178587
 20
111.749772
 30
0.0
 10
19.178587
 20
110.5060343333333
 30
0.0
 10
19.178587
 20
108.0185593333333
 30
0.0
 10
19.178587
 20
104.2873463333333
 30
0.0
 10
19.178587
 20
101.799871
 30
0.0
 10
19.178587
 20
100.556133
 30
0.0
 11
19.178587
 21
111.749772
 31
0.0
 11
19.178587
 21
108.018559
 31
0.0
 11
19.178587
 21
104.287347
 31
0.0
 11
19.178587
 21
100.556133
 31
0.0
  0
LINE
  5
129
330
1F
100
AcDbEntity
  8
0
 62
     7
100
AcDbLine
 10
15.780173
 20
97.157825
 30
0.0
 11
15.780173
 21
97.157825
 31
0.0
  0
SPLINE
  5
12A
330
1F
100
AcDbEntity
  8
0
 62
     7
100
AcDbSpline
 70
     0
 71
     3
 72
    10
 73
     6
 74
     4
 42
0.000000001
 43
0.0000001
 44
0.0000000001
 40
0.0
 40
0.0
 40
0.0
 40
0.0
 40
1.757359412286799
 40
3.516269852850784
 40
5.273769840456476
 40
5.273769840456476
 40
5.273769840456476
 40
5.273769840456476
 10
19.178587
 20
100.556133
 30
0.0
 10
19.08560469500004
 20
99.9676752807249
 30
0.0
 10
18.89955801972463
 20
98.79024047513113
 30
0.0
 10
17.54615272661359
 20
97.436876090619
 30
0.0
 10
16.36867547784859
 20
97.25081715376078
 30
0.0
 10
15.780173
 20
97.157825
 30
0.0
 11
19.178587
 21
100.556133
 31
0.0
 11
18.720715
 21
98.85947
 31
0.0
 11
17.47697
 21
97.61574
 31
0.0
 11
15.780173
 21
97.157825
 31
0.0
  0
LINE
  5
12B
330
1F
100
AcDbEntity
  8
0
 62
     7
100
AcDbLine
 10
13.382554
 20
97.157825
 30
0.0
 11
13.382554
 21
97.157825
 31
0.0
  0
SPLINE
  5
12C
330
1F
100
AcDbEntity
  8
0
 62
     7
100
AcDbSpline
 70
     0
 71
     3
 72
    10
 73
     6
 74
     4
 42
0.000000001
 43
0.0000001
 44
0.0000000001
 40
0.0
 40
0.0
 40
0.0
 40
0.0
 40
0.7992059999999999
 40
1.598412
 40
2.397618999999999
 40
2.397618999999999
 40
2.397618999999999
 40
2.397618999999999
 10
15.780173
 20
97.157825
 30
0.0
 10
15.513771
 20
97.15782499999997
 30
0.0
 10
14.980967
 20
97.15782499999999
 30
0.0
 10
14.18176066666667
 20
97.157825
 30
0.0
 10
13.64895633333333
 20
97.157825
 30
0.0
 10
13.382554
 20
97.157825
 30
0.0
 11
15.780173
 21
97.157825
 31
0.0
 11
14.980967
 21
97.157825
 31
0.0
 11
14.181761
 21
97.157825
 31
0.0
 11
13.382554
 21
97.157825
 31
0.0
  0
LINE
  5
12D
330
1F
100
AcDbEntity
  8
0
 62
     7
100
AcDbLine
 10
9.984317
 20
100.556133
 30
0.0
 11
9.984317
 21
100.556133
 31
0.0
  0
SPLINE
  5
12E
330
1F
100
AcDbEntity
  8
0
 62
     7
100
AcDbSpline
 70
     0
 71
     3
 72
    10
 73
     6
 74
     4
 42
0.000000001
 43
0.0000001
 44
0.0000000001
 40
0.0
 40
0.0
 40
0.0
 40
0.0
 40
1.757299967837592
 40
3.516158082467936
 40
5.273596220354441
 40
5.273596220354441
 40
5.273596220354441
 40
5.273596220354441
 10
13.382554
 20
97.157825
 30
0.0
 10
12.79411910373778
 20
97.25081528767747
 30
0.0
 10
11.61672756309797
 20
97.43687831481702
 30
0.0
 10
10.26340445208077
 20
98.79022122223516
 30
0.0
 10
10.07732110217565
 20
99.967654233979
 30
0.0
 10
9.984317
 20
100.556133
 30
0.0
 11
13.382554
 21
97.157825
 31
0.0
 11
11.685955
 21
97.615706
 31
0.0
 11
10.442254
 21
98.859406
 31
0.0
 11
9.984317
 21
100.556133
 31
0.0
  0
SPLINE
  5
12F
330
1F
100
AcDbEntity
  8
0
 62
     7
100
AcDbSpline
 70
     0
 71
     3
 72
    10
 73
     6
 74
     4
 42
0.000000001
 43
0.0000001
 44
0.0000000001
 40
0.0
 40
0.0
 40
0.0
 40
0.0
 40
3.731213999999994
 40
7.462425999999994
 40
11.19363899999999
 40
11.19363899999999
 40
11.19363899999999
 40
11.19363899999999
 10
9.984317
 20
100.556133
 30
0.0
 10
9.984317
 20
101.799871
 30
0.0
 10
9.984317000000003
 20
104.2873463333334
 30
0.0
 10
9.984317
 20
108.0185593333333
 30
0.0
 10
9.984317
 20
110.5060343333333
 30
0.0
 10
9.984317
 20
111.749772
 30
0.0
 11
9.984317
 21
100.556133
 31
0.0
 11
9.984317
 21
104.287347
 31
0.0
 11
9.984317
 21
108.018559
 31
0.0
 11
9.984317
 21
111.749772
 31
0.0
  0
LINE
  5
130
330
1F
100
AcDbEntity
  8
0
 62
     7
100
AcDbLine
 10
13.382554
 20
115.148081
 30
0.0
 11
13.382554
 21
115.148081
 31
0.0
  0
SPLINE
  5
131
330
1F
100
AcDbEntity
  8
0
 62
     7
100
AcDbSpline
 70
     0
 71
     3
 72
    10
 73
     6
 74
     4
 42
0.000000001
 43
0.0000001
 44
0.0000000001
 40
0.0
 40
0.0
 40
0.0
 40
0.0
 40
1.75730188262832
 40
3.516161412229529
 40
5.273596670626836
 40
5.273596670626836
 40
5.273596670626836
 40
5.273596670626836
 10
9.984317
 20
111.749772
 30
0.0
 10
10.07730003586233
 20
112.3382071395096
 30
0.0
 10
10.26334852640515
 20
113.515598998926
 30
0.0
 10
11.61664267230801
 20
114.8689711991669
 30
0.0
 10
12.79407586342756
 20
115.0550695260275
 30
0.0
 10
13.382554
 20
115.148081
 30
0.0
 11
9.984317
 21
111.749772
 31
0.0
 11
10.442172
 21
113.44638
 31
0.0
 11
11.685837
 21
114.690118
 31
0.0
 11
13.382554
 21
115.148081
 31
0.0
  0
LINE
  5
132
330
1F
100
AcDbEntity
  8
0
 62
     7
100
AcDbLine
 10
15.780173
 20
115.148081
 30
0.0
 11
15.780173
 21
115.148081
 31
0.0
  0
SPLINE
  5
133
330
1F
100
AcDbEntity
  8
0
 62
     7
100
AcDbSpline
 70
     0
 71
     3
 72
    10
 73
     6
 74
     4
 42
0.000000001
 43
0.0000001
 44
0.0000000001
 40
0.0
 40
0.0
 40
0.0
 40
0.0
 40
0.7992069999999991
 40
1.598412999999999
 40
2.397618999999999
 40
2.397618999999999
 40
2.397618999999999
 40
2.397618999999999
 10
13.382554
 20
115.148081
 30
0.0
 10
13.64895633333333
 20
115.148081
 30
0.0
 10
14.18176066666667
 20
115.148081
 30
0.0
 10
14.980967
 20
115.148081
 30
0.0
 10
15.513771
 20
115.148081
 30
0.0
 10
15.780173
 20
115.148081
 30
0.0
 11
13.382554
 21
115.148081
 31
0.0
 11
14.181761
 21
115.148081
 31
0.0
 11
14.980967
 21
115.148081
 31
0.0
 11
15.780173
 21
115.148081
 31
0.0
  0
LINE
  5
134
330
1F
100
AcDbEntity
  8
0
 62
     1
100
AcDbLine
 10
51.085627
 20
51.106069
 30
0.0
 11
44.553311
 21
50.951694
 31
0.0
  0
LINE
  5
135
330
1F
100
AcDbEntity
  8
0
 62
     1
100
AcDbLine
 10
44.553311
 20
50.951694
 30
0.0
 11
41.199382
 21
46.921843
 31
0.0
  0
LINE
  5
136
330
1F
100
AcDbEntity
  8
0
 62
     1
100
AcDbLine
 10
41.199382
 20
46.921843
 30
0.0
 11
41.199382
 21
46.921843
 31
0.0
  0
LINE
  5
137
330
1F
100
AcDbEntity
  8
0
 62
     1
100
AcDbLine
 10
30.222065
 20
51.60532
 30
0.0
 11
41.880667
 21
43.084185
 31
0.0
  0
SPLINE
  5
138
330
1F
100
AcDbEntity
  8
0
 62
     1
100
AcDbSpline
 70
     0
 71
     3
 72
    13
 73
     9
 74
     7
 42
0.000000001
 43
0.0000001
 44
0.0000000001
 40
0.0
 40
0.0
 40
0.0
 40
0.0
 40
1.34475776810287
 40
2.710448968517517
 40
4.120826901948126
 40
7.135927095220811
 40
10.05653622556075
 40
13.04019997774497
 40
13.04019997774497
 40
13.04019997774497
 40
13.04019997774497
 10
41.199382
 20
46.921843
 30
0.0
 10
41.5669887320175
 20
46.66216813944849
 30
0.0
 10
42.30792461746142
 20
46.13877613932289
 30
0.0
 10
43.62234053000405
 20
45.68312189386791
 30
0.0
 10
45.55251826015745
 20
45.45279279944845
 30
0.0
 10
48.01770370452492
 20
46.08380729204289
 30
0.0
 10
50.37547226943254
 20
48.16701371092021
 30
0.0
 10
50.84722938139392
 20
50.11943362082232
 30
0.0
 10
51.085627
 20
51.106069
 30
0.0
 11
41.199382
 21
46.921843
 31
0.0
 11
42.33263
 21
46.19788
 31
0.0
 11
43.617713
 21
45.735631
 31
0.0
 11
45.018695
 21
45.573103
 31
0.0
 11
47.940312
 21
46.318075
 31
0.0
 11
50.09234
 21
48.292596
 31
0.0
 11
51.085627
 21
51.106069
 31
0.0
  0
SPLINE
  5
139
330
1F
100
AcDbEntity
  8
0
 62
     1
100
AcDbSpline
 70
     0
 71
     3
 72
    10
 73
     6
 74
     4
 42
0.000000001
 43
0.0000001
 44
0.0000000001
 40
0.0
 40
0.0
 40
0.0
 40
0.0
 40
0.7697077809253288
 40
2.613560854174928
 40
4.838919894028949
 40
4.838919894028949
 40
4.838919894028949
 40
4.838919894028949
 10
41.880667
 20
43.084185
 30
0.0
 10
42.07654193860581
 20
42.91848919539686
 30
0.0
 10
42.74163989466211
 20
42.35586519789595
 30
0.0
 10
43.94521428698467
 20
41.28027485675871
 30
0.0
 10
44.88730831966338
 20
40.30378627345426
 30
0.0
 10
45.402518
 20
39.769767
 30
0.0
 11
41.880667
 21
43.084185
 31
0.0
 11
42.466988
 21
42.585509
 31
0.0
 11
43.835944
 21
41.350295
 31
0.0
 11
45.402518
 21
39.769767
 31
0.0
  0
SPLINE
  5
13A
330
1F
100
AcDbEntity
  8
0
 62
     1
100
AcDbSpline
 70
     0
 71
     3
 72
    10
 73
     6
 74
     4
 42
0.000000001
 43
0.0000001
 44
0.0000000001
 40
0.0
 40
0.0
 40
0.0
 40
0.0
 40
2.986895231612418
 40
6.772729463755315
 40
10.16500176941903
 40
10.16500176941903
 40
10.16500176941903
 40
10.16500176941903
 10
45.402518
 20
39.769767
 30
0.0
 10
46.07682080571945
 20
39.03723266818957
 30
0.0
 10
47.6057898942414
 20
37.37622467575771
 30
0.0
 10
49.92451114574249
 20
34.90545703108852
 30
0.0
 10
51.54361314273417
 20
33.1437540696735
 30
0.0
 10
52.308778
 20
32.311198
 30
0.0
 11
45.402518
 21
39.769767
 31
0.0
 11
47.428528
 21
37.57504
 31
0.0
 11
50.0092
 21
34.805081
 31
0.0
 11
52.308778
 21
32.311198
 31
0.0
  0
SPLINE
  5
13B
330
1F
100
AcDbEntity
  8
0
 62
     1
100
AcDbSpline
 70
     0
 71
     3
 72
    10
 73
     6
 74
     4
 42
0.000000001
 43
0.0000001
 44
0.0000000001
 40
0.0
 40
0.0
 40
0.0
 40
0.0
 40
2.484928660959302
 40
4.66907451144388
 40
7.296228512433169
 40
7.296228512433169
 40
7.296228512433169
 40
7.296228512433169
 10
52.308778
 20
32.311198
 30
0.0
 10
52.70482398007989
 20
31.5323435687753
 30
0.0
 10
53.44897741192813
 20
30.06890945491528
 30
0.0
 10
51.60597924440648
 20
27.43087235092143
 30
0.0
 10
50.02590827116332
 20
28.4658122014271
 30
0.0
 10
49.163129
 20
29.030929
 30
0.0
 11
52.308778
 21
32.311198
 31
0.0
 11
52.952077
 21
29.910982
 31
0.0
 11
51.642712
 21
28.162824
 31
0.0
 11
49.163129
 21
29.030929
 31
0.0
  0
LINE
  5
13C
330
1F
100
AcDbEntity
  8
0
 62
     1
100
AcDbLine
 10
39.6243
 20
38.975312
 30
0.0
 11
34.39331
 21
32.276485
 31
0.0
  0
SPLINE
  5
13D
330
1F
100
AcDbEntity
  8
0
 62
     1
100
AcDbSpline
 70
     0
 71
     3
 72
    10
 73
     6
 74
     4
 42
0.000000001
 43
0.0000001
 44
0.0000000001
 40
0.0
 40
0.0
 40
0.0
 40
0.0
 40
5.343337626534557
 40
11.09264768523082
 40
13.77982321265734
 40
13.77982321265734
 40
13.77982321265734
 40
13.77982321265734
 10
49.163129
 20
29.030929
 30
0.0
 10
47.92115176050174
 20
30.30760425143849
 30
0.0
 10
45.34283518877413
 20
32.95795310873975
 30
0.0
 10
42.17665053952703
 20
36.28572311897908
 30
0.0
 10
40.24087882573181
 20
38.3255801045259
 30
0.0
 10
39.6243
 20
38.975312
 30
0.0
 11
49.163129
 21
29.030929
 31
0.0
 11
45.444057
 21
32.867563
 31
0.0
 11
41.474308
 21
37.026368
 31
0.0
 11
39.6243
 21
38.975312
 31
0.0
  0
SPLINE
  5
13E
330
1F
100
AcDbEntity
  8
0
 62
     1
100
AcDbSpline
 70
     0
 71
     3
 72
    19
 73
    15
 74
    13
 42
0.000000001
 43
0.0000001
 44
0.0000000001
 40
0.0
 40
0.0
 40
0.0
 40
0.0
 40
2.088663266130758
 40
6.110303579439991
 40
8.698492019995472
 40
9.426302051933062
 40
10.38234812842101
 40
11.97417428327744
 40
16.29840763281225
 40
20.97223852796122
 40
24.16712901173214
 40
26.37235925513735
 40
28.61261435878648
 40
31.06711994499646
 40
31.06711994499646
 40
31.06711994499646
 40
31.06711994499646
 10
34.39331
 20
32.276485
 30
0.0
 10
34.89482699730139
 20
31.79408813206116
 30
0.0
 10
36.361995570356
 20
30.38285475774239
 30
0.0
 10
38.42651313057637
 20
28.33000134802751
 30
0.0
 10
40.24947564653819
 20
26.7350321852296
 30
0.0
 10
41.22853112017077
 20
25.65121145992141
 30
0.0
 10
41.34888285426142
 20
24.51427882123901
 30
0.0
 10
41.11082431317156
 20
22.25674527073267
 30
0.0
 10
40.65604570522171
 20
18.73943045344583
 30
0.0
 10
39.86173512472716
 20
14.75828563235253
 30
0.0
 10
39.9198480886681
 20
11.34284866142845
 30
0.0
 10
38.33211343994506
 20
9.031044441688362
 30
0.0
 10
35.37828516866114
 20
9.15272372457749
 30
0.0
 10
35.09082720788467
 20
10.89177343659386
 30
0.0
 10
34.940539
 20
11.80098
 30
0.0
 11
34.39331
 21
32.276485
 31
0.0
 11
35.895882
 21
30.825695
 31
0.0
 11
38.793887
 21
28.037298
 31
0.0
 11
40.672755
 21
26.257249
 31
0.0
 11
41.115688
 21
25.679739
 31
0.0
 11
41.299916
 21
24.741611
 31
0.0
 11
41.201922
 21
23.152804
 31
0.0
 11
40.624924
 21
18.867239
 31
0.0
 11
39.962256
 21
14.240624
 31
0.0
 11
39.521853
 21
11.076233
 31
0.0
 11
38.098418
 21
9.391931
 31
0.0
 11
35.862183
 21
9.52608
 31
0.0
 11
34.940539
 21
11.80098
 31
0.0
  0
LINE
  5
13F
330
1F
100
AcDbEntity
  8
0
 62
     1
100
AcDbLine
 10
36.547513
 20
22.573966
 30
0.0
 11
28.615656
 21
30.406763
 31
0.0
  0
LINE
  5
140
330
1F
100
AcDbEntity
  8
0
 62
     1
100
AcDbLine
 10
28.615656
 20
30.406763
 30
0.0
 11
22.598396
 21
19.63942
 31
0.0
  0
SPLINE
  5
141
330
1F
100
AcDbEntity
  8
0
 62
     1
100
AcDbSpline
 70
     0
 71
     3
 72
    10
 73
     6
 74
     4
 42
0.000000001
 43
0.0000001
 44
0.0000000001
 40
0.0
 40
0.0
 40
0.0
 40
0.0
 40
4.370881255867976
 40
8.841855755439742
 40
10.89237734533656
 40
10.89237734533656
 40
10.89237734533656
 40
10.89237734533656
 10
34.940539
 20
11.80098
 30
0.0
 10
35.14163613135404
 20
13.2440152905256
 30
0.0
 10
35.54843552126611
 20
16.16313140051077
 30
0.0
 10
36.10382674987966
 20
19.75129292614454
 30
0.0
 10
36.44137833380559
 20
21.89875133110194
 30
0.0
 10
36.547513
 20
22.573966
 30
0.0
 11
34.940539
 21
11.80098
 31
0.0
 11
35.554592
 21
16.128513
 31
0.0
 11
36.229606
 21
20.548238
 31
0.0
 11
36.547513
 21
22.573966
 31
0.0
  0
SPLINE
  5
142
330
1F
100
AcDbEntity
  8
0
 62
     1
100
AcDbSpline
 70
     0
 71
     3
 72
    13
 73
     9
 74
     7
 42
0.000000001
 43
0.0000001
 44
0.0000000001
 40
0.0
 40
0.0
 40
0.0
 40
0.0
 40
2.357610402395826
 40
7.354760714485707
 40
11.87795651415213
 40
14.59119475183731
 40
17.38484518493108
 40
20.43663088915689
 40
20.43663088915689
 40
20.43663088915689
 40
20.43663088915689
 10
22.598396
 20
19.63942
 30
0.0
 10
21.98536362286553
 20
19.14761513482517
 30
0.0
 10
20.07295840125871
 20
17.61338916691079
 30
0.0
 10
16.83182622370105
 20
15.33140495441578
 30
0.0
 10
14.10774637067416
 20
12.19346307829741
 30
0.0
 10
10.43359987836256
 20
11.46929534113553
 30
0.0
 10
8.144279091586704
 20
14.33940681200887
 30
0.0
 10
9.39685045543681
 20
16.09728291970382
 30
0.0
 10
10.050793
 20
17.015035
 30
0.0
 11
22.598396
 21
19.63942
 31
0.0
 11
20.74959
 21
18.176463
 31
0.0
 11
16.834164
 21
15.071475
 31
0.0
 11
13.29861
 21
12.250277
 31
0.0
 11
10.595169
 21
12.019911
 31
0.0
 11
8.856554
 21
14.206621
 31
0.0
 11
10.050793
 21
17.015035
 31
0.0
  0
LINE
  5
143
330
1F
100
AcDbEntity
  8
0
 62
     1
100
AcDbLine
 10
31.761023
 20
44.589558
 30
0.0
 11
28.273603
 21
47.503785
 31
0.0
  0
SPLINE
  5
144
330
1F
100
AcDbEntity
  8
0
 62
     1
100
AcDbSpline
 70
     0
 71
     3
 72
    13
 73
     9
 74
     7
 42
0.000000001
 43
0.0000001
 44
0.0000000001
 40
0.0
 40
0.0
 40
0.0
 40
0.0
 40
4.351398196297368
 40
8.06887374104894
 40
9.643399155022626
 40
14.33600135191989
 40
24.75794224362988
 40
35.57083188493567
 40
35.57083188493567
 40
35.57083188493567
 40
35.57083188493567
 10
10.050793
 20
17.015035
 30
0.0
 10
11.20915035437027
 20
17.89143728754569
 30
0.0
 10
13.35711264552125
 20
19.51656536950101
 30
0.0
 10
15.82316705326345
 20
21.54917759093583
 30
0.0
 10
18.62162669249726
 20
23.4555335910806
 30
0.0
 10
20.23331146081937
 20
29.15174131656697
 30
0.0
 10
25.00523042413138
 20
36.28464173465505
 30
0.0
 10
29.48162093442181
 20
41.78748214034451
 30
0.0
 10
31.761023
 20
44.589558
 30
0.0
 11
10.050793
 21
17.015035
 31
0.0
 11
13.501275
 21
19.666231
 31
0.0
 11
16.43529
 21
21.949032
 31
0.0
 11
17.67503
 21
22.919689
 31
0.0
 11
19.807469
 21
27.099787
 31
0.0
 11
25.07013
 21
36.095411
 31
0.0
 11
31.761023
 21
44.589558
 31
0.0
  0
SPLINE
  5
145
330
1F
100
AcDbEntity
  8
0
 62
     1
100
AcDbSpline
 70
     0
 71
     3
 72
    10
 73
     6
 74
     4
 42
0.000000001
 43
0.0000001
 44
0.0000000001
 40
0.0
 40
0.0
 40
0.0
 40
0.0
 40
1.564110816734226
 40
5.028312536098297
 40
8.550447448360602
 40
8.550447448360602
 40
8.550447448360602
 40
8.550447448360602
 10
28.273603
 20
47.503785
 30
0.0
 10
27.85781054868099
 20
47.18923230274538
 30
0.0
 10
26.52111856176171
 20
46.17800646507018
 30
0.0
 10
24.24990769485773
 20
44.45608584398113
 30
0.0
 10
22.40197979051371
 20
43.03890786293493
 30
0.0
 10
21.470354
 20
42.324443
 30
0.0
 11
28.273603
 21
47.503785
 31
0.0
 11
27.026327
 21
46.559992
 31
0.0
 11
24.267218
 21
44.465234
 31
0.0
 11
21.470354
 21
42.324443
 31
0.0
  0
LINE
  5
146
330
1F
100
AcDbEntity
  8
0
 62
     1
100
AcDbLine
 10
30.222065
 20
51.60532
 30
0.0
 11
30.222065
 21
51.60532
 31
0.0
  0
LINE
  5
147
330
1F
100
AcDbEntity
  8
0
 62
     1
100
AcDbLine
 10
27.660401
 20
67.549091
 30
0.0
 11
28.832085
 21
70.963433
 31
0.0
  0
LINE
  5
148
330
1F
100
AcDbEntity
  8
0
 62
     1
100
AcDbLine
 10
28.832085
 20
70.963433
 30
0.0
 11
30.953303
 21
70.235504
 31
0.0
  0
LINE
  5
149
330
1F
100
AcDbEntity
  8
0
 62
     1
100
AcDbLine
 10
30.953303
 20
70.235504
 30
0.0
 11
29.781619
 21
66.821162
 31
0.0
  0
LINE
  5
14A
330
1F
100
AcDbEntity
  8
0
 62
     1
100
AcDbLine
 10
29.781619
 20
66.821162
 30
0.0
 11
27.660401
 21
67.549091
 31
0.0
  0
LINE
  5
14B
330
1F
100
AcDbEntity
  8
0
 62
     1
100
AcDbLine
 10
34.6193
 20
59.110142
 30
0.0
 11
31.204689
 21
60.281555
 31
0.0
  0
LINE
  5
14C
330
1F
100
AcDbEntity
  8
0
 62
     1
100
AcDbLine
 10
31.204689
 20
60.281555
 30
0.0
 11
31.932483
 21
62.40304
 31
0.0
  0
LINE
  5
14D
330
1F
100
AcDbEntity
  8
0
 62
     1
100
AcDbLine
 10
31.932483
 20
62.40304
 30
0.0
 11
35.347095
 21
61.231624
 31
0.0
  0
LINE
  5
14E
330
1F
100
AcDbEntity
  8
0
 62
     1
100
AcDbLine
 10
35.347095
 20
61.231624
 30
0.0
 11
34.6193
 21
59.110142
 31
0.0
  0
LINE
  5
14F
330
1F
100
AcDbEntity
  8
0
 62
     1
100
AcDbLine
 10
43.073941
 20
66.086259
 30
0.0
 11
41.902888
 21
62.671652
 31
0.0
  0
LINE
  5
150
330
1F
100
AcDbEntity
  8
0
 62
     1
100
AcDbLine
 10
41.902888
 20
62.671652
 30
0.0
 11
39.780605
 21
63.3995
 31
0.0
  0
LINE
  5
151
330
1F
100
AcDbEntity
  8
0
 62
     1
100
AcDbLine
 10
39.780605
 20
63.3995
 30
0.0
 11
40.951658
 21
66.814103
 31
0.0
  0
LINE
  5
152
330
1F
100
AcDbEntity
  8
0
 62
     1
100
AcDbLine
 10
40.951658
 20
66.814103
 30
0.0
 11
43.073941
 21
66.086259
 31
0.0
  0
SPLINE
  5
153
330
1F
100
AcDbEntity
  8
0
 62
     1
100
AcDbSpline
 70
     0
 71
     3
 72
    16
 73
    12
 74
    10
 42
0.000000001
 43
0.0000001
 44
0.0000000001
 40
0.0
 40
0.0
 40
0.0
 40
0.0
 40
2.407891638062021
 40
4.73398020227534
 40
7.467812507112274
 40
11.39925923419647
 40
14.90345597897893
 40
16.9314981880626
 40
17.93874003449473
 40
19.18183747629283
 40
21.10600984406554
 40
21.10600984406554
 40
21.10600984406554
 40
21.10600984406554
 10
21.470354
 20
42.324443
 30
0.0
 10
20.64182600672585
 20
42.05131897685621
 30
0.0
 10
19.01291752297553
 20
41.51434974705767
 30
0.0
 10
17.00597990207256
 20
44.04984070109325
 30
0.0
 10
19.00806036166219
 20
46.92038888692731
 30
0.0
 10
21.83442499236572
 20
48.59016661292772
 30
0.0
 10
24.33549775305072
 20
50.57202973786814
 30
0.0
 10
26.04574996844792
 20
51.90371659559534
 30
0.0
 10
27.31171101501844
 20
52.61735352490898
 30
0.0
 10
28.78601672600554
 20
52.5607898175874
 30
0.0
 10
29.67934953523368
 20
51.96641388208779
 30
0.0
 10
30.222065
 20
51.60532
 30
0.0
 11
21.470354
 21
42.324443
 31
0.0
 11
19.077047
 21
42.059823
 31
0.0
 11
17.641037
 21
43.889731
 31
0.0
 11
18.803354
 21
46.364172
 31
0.0
 11
21.924805
 21
48.754322
 31
0.0
 11
24.719505
 21
50.868334
 31
0.0
 11
26.35929
 21
52.061674
 31
0.0
 11
27.267742
 21
52.496704
 31
0.0
 11
28.510785
 21
52.48507
 31
0.0
 11
30.222065
 21
51.60532
 31
0.0
  0
LINE
  5
154
330
1F
100
AcDbEntity
  8
0
 62
     1
100
AcDbLine
 10
34.94195
 20
64.257343
 30
0.0
 11
34.25361
 21
62.251025
 31
0.0
  0
SPLINE
  5
155
330
1F
100
AcDbEntity
  8
0
 62
     1
100
AcDbSpline
 70
     0
 71
     3
 72
    10
 73
     6
 74
     4
 42
0.000000001
 43
0.0000001
 44
0.0000000001
 40
0.0
 40
0.0
 40
0.0
 40
0.0
 40
1.058342540562832
 40
2.097899703129665
 40
3.156134189577729
 40
3.156134189577729
 40
3.156134189577729
 40
3.156134189577729
 10
37.621369
 20
65.568265
 30
0.0
 10
37.41292352305084
 20
65.27927256421168
 30
0.0
 10
36.99973243656401
 20
64.70641725318487
 30
0.0
 10
36.00388900460216
 20
64.21892610771725
 30
0.0
 10
35.29802451552662
 20
64.24446158567362
 30
0.0
 10
34.94195
 20
64.257343
 30
0.0
 11
37.621369
 21
65.568265
 31
0.0
 11
36.932726
 21
64.764611
 31
0.0
 11
35.998988
 21
64.307651
 31
0.0
 11
34.94195
 21
64.257343
 31
0.0
  0
LINE
  5
156
330
1F
100
AcDbEntity
  8
0
 62
     1
100
AcDbLine
 10
39.627687
 20
64.879643
 30
0.0
 11
37.621369
 21
65.568265
 31
0.0
  0
LINE
  5
157
330
1F
100
AcDbEntity
  8
0
 62
     1
100
AcDbLine
 10
37.621369
 20
65.568265
 30
0.0
 11
37.621369
 21
65.568265
 31
0.0
  0
SPLINE
  5
158
330
1F
100
AcDbEntity
  8
0
 62
     1
100
AcDbSpline
 70
     0
 71
     3
 72
    10
 73
     6
 74
     4
 42
0.000000001
 43
0.0000001
 44
0.0000000001
 40
0.0
 40
0.0
 40
0.0
 40
0.0
 40
2.159247029350971
 40
4.270170312264399
 40
6.429096976130962
 40
6.429096976130962
 40
6.429096976130962
 40
6.429096976130962
 10
34.25361
 20
62.251025
 30
0.0
 10
34.97928530857329
 20
62.1792349207939
 30
0.0
 10
36.41439538022841
 20
62.03726141763566
 30
0.0
 10
38.47029109079971
 20
63.04268403873485
 30
0.0
 10
39.2390076228251
 20
64.26275118339272
 30
0.0
 10
39.627687
 20
64.879643
 30
0.0
 11
34.25361
 21
62.251025
 31
0.0
 11
36.412841
 21
62.242705
 31
0.0
 11
38.309102
 21
63.17017
 31
0.0
 11
39.627687
 21
64.879643
 31
0.0
  0
LINE
  5
159
330
1F
100
AcDbEntity
  8
0
 62
     1
100
AcDbLine
 10
32.791134
 20
67.225192
 30
0.0
 11
30.784816
 21
67.913532
 31
0.0
  0
SPLINE
  5
15A
330
1F
100
AcDbEntity
  8
0
 62
     1
100
AcDbSpline
 70
     0
 71
     3
 72
    10
 73
     6
 74
     4
 42
0.000000001
 43
0.0000001
 44
0.0000000001
 40
0.0
 40
0.0
 40
0.0
 40
0.0
 40
1.058241480919178
 40
2.097883559745351
 40
3.156305881201678
 40
3.156305881201678
 40
3.156305881201678
 40
3.156305881201678
 10
34.102057
 20
64.545774
 30
0.0
 10
33.81295555688874
 20
64.75405746316329
 30
0.0
 10
33.23983384928475
 20
65.16696364858097
 30
0.0
 10
32.75279346666486
 20
66.16315665019162
 30
0.0
 10
32.77827778361899
 20
66.86907394232807
 30
0.0
 10
32.791134
 20
67.225192
 30
0.0
 11
34.102057
 21
64.545774
 31
0.0
 11
33.298214
 21
65.234041
 31
0.0
 11
32.841443
 21
66.167966
 31
0.0
 11
32.791134
 21
67.225192
 31
0.0
  0
LINE
  5
15B
330
1F
100
AcDbEntity
  8
0
 62
     1
100
AcDbLine
 10
33.413717
 20
62.539174
 30
0.0
 11
34.102057
 21
64.545774
 31
0.0
  0
LINE
  5
15C
330
1F
100
AcDbEntity
  8
0
 62
     1
100
AcDbLine
 10
34.102057
 20
64.545774
 30
0.0
 11
34.102057
 21
64.545774
 31
0.0
  0
SPLINE
  5
15D
330
1F
100
AcDbEntity
  8
0
 62
     1
100
AcDbSpline
 70
     0
 71
     3
 72
    10
 73
     6
 74
     4
 42
0.000000001
 43
0.0000001
 44
0.0000000001
 40
0.0
 40
0.0
 40
0.0
 40
0.0
 40
2.15931974876928
 40
4.27017391215362
 40
6.429466038008985
 40
6.429466038008985
 40
6.429466038008985
 40
6.429466038008985
 10
30.784816
 20
67.913532
 30
0.0
 10
30.71305285921284
 20
67.18783092285068
 30
0.0
 10
30.57113728982198
 20
65.75271701281906
 30
0.0
 10
31.57657792627887
 20
63.69671770977541
 30
0.0
 10
32.79672377603914
 20
62.92792879575061
 30
0.0
 10
33.413717
 20
62.539174
 30
0.0
 11
30.784816
 21
67.913532
 31
0.0
 11
30.776569
 21
65.754228
 31
0.0
 11
31.703983
 21
63.858019
 31
0.0
 11
33.413717
 21
62.539174
 31
0.0
  0
LINE
  5
15E
330
1F
100
AcDbEntity
  8
0
 62
     1
100
AcDbLine
 10
37.908953
 20
66.40844
 30
0.0
 11
39.915553
 21
65.7201
 31
0.0
  0
SPLINE
  5
15F
330
1F
100
AcDbEntity
  8
0
 62
     1
100
AcDbSpline
 70
     0
 71
     3
 72
    10
 73
     6
 74
     4
 42
0.000000001
 43
0.0000001
 44
0.0000000001
 40
0.0
 40
0.0
 40
0.0
 40
0.0
 40
1.058470074124908
 40
2.097776887130582
 40
3.155655024256971
 40
3.155655024256971
 40
3.155655024256971
 40
3.155655024256971
 10
36.598595
 20
69.087294
 30
0.0
 10
36.88773133545725
 20
68.87893930078766
 30
0.0
 10
37.46076928577748
 20
68.46600209734896
 30
0.0
 10
37.94780417023003
 20
67.47002097615156
 30
0.0
 10
37.921979618629
 20
66.76438321710883
 30
0.0
 10
37.908953
 20
66.40844
 30
0.0
 11
36.598595
 21
69.087294
 31
0.0
 11
37.402542
 21
68.398797
 31
0.0
 11
37.859104
 21
67.465143
 31
0.0
 11
37.908953
 21
66.40844
 31
0.0
  0
LINE
  5
160
330
1F
100
AcDbEntity
  8
0
 62
     1
100
AcDbLine
 10
37.287218
 20
71.093894
 30
0.0
 11
36.598595
 21
69.087294
 31
0.0
  0
LINE
  5
161
330
1F
100
AcDbEntity
  8
0
 62
     1
100
AcDbLine
 10
36.598595
 20
69.087294
 30
0.0
 11
36.598595
 21
69.087294
 31
0.0
  0
SPLINE
  5
162
330
1F
100
AcDbEntity
  8
0
 62
     1
100
AcDbSpline
 70
     0
 71
     3
 72
    10
 73
     6
 74
     4
 42
0.000000001
 43
0.0000001
 44
0.0000000001
 40
0.0
 40
0.0
 40
0.0
 40
0.0
 40
2.159172118440068
 40
4.269718253717144
 40
6.428457223232686
 40
6.428457223232686
 40
6.428457223232686
 40
6.428457223232686
 10
39.915553
 20
65.7201
 30
0.0
 10
39.98724454263083
 20
66.44575479803113
 30
0.0
 10
40.12901308696959
 20
67.88072216843673
 30
0.0
 10
39.1237764349202
 20
69.93635760362935
 30
0.0
 10
37.90399388904821
 20
70.70515573477394
 30
0.0
 10
37.287218
 20
71.093894
 30
0.0
 11
39.915553
 21
65.7201
 31
0.0
 11
39.923633
 21
67.879257
 31
0.0
 11
38.996366
 21
69.775195
 31
0.0
 11
37.287218
 21
71.093894
 31
0.0
  0
LINE
  5
163
330
1F
100
AcDbEntity
  8
0
 62
     1
100
AcDbLine
 10
35.758702
 20
69.375725
 30
0.0
 11
36.447042
 21
71.382043
 31
0.0
  0
SPLINE
  5
164
330
1F
100
AcDbEntity
  8
0
 62
     1
100
AcDbSpline
 70
     0
 71
     3
 72
    10
 73
     6
 74
     4
 42
0.000000001
 43
0.0000001
 44
0.0000000001
 40
0.0
 40
0.0
 40
0.0
 40
0.0
 40
1.058322287215006
 40
2.097814628578805
 40
3.156095121448727
 40
3.156095121448727
 40
3.156095121448727
 40
3.156095121448727
 10
33.079565
 20
68.064803
 30
0.0
 10
33.28786974612008
 20
68.35391113718816
 30
0.0
 10
33.70077302604913
 20
68.92698352426837
 30
0.0
 10
34.69678184523398
 20
69.41425701224054
 30
0.0
 10
35.40262139289391
 20
69.38864546511225
 30
0.0
 10
35.758702
 20
69.375725
 30
0.0
 11
33.079565
 21
68.064803
 31
0.0
 11
33.767885
 21
68.868707
 31
0.0
 11
34.701612
 21
69.325542
 31
0.0
 11
35.758702
 21
69.375725
 31
0.0
  0
LINE
  5
165
330
1F
100
AcDbEntity
  8
0
 62
     1
100
AcDbLine
 10
31.073247
 20
68.753425
 30
0.0
 11
33.079565
 21
68.064803
 31
0.0
  0
LINE
  5
166
330
1F
100
AcDbEntity
  8
0
 62
     1
100
AcDbLine
 10
33.079565
 20
68.064803
 30
0.0
 11
33.079565
 21
68.064803
 31
0.0
  0
LINE
  5
167
330
1F
100
AcDbEntity
  8
0
 62
     1
100
AcDbLine
 10
36.107829
 20
74.523656
 30
0.0
 11
39.521899
 21
73.352426
 31
0.0
  0
LINE
  5
168
330
1F
100
AcDbEntity
  8
0
 62
     1
100
AcDbLine
 10
39.521899
 20
73.352426
 30
0.0
 11
38.793829
 21
71.23014
 31
0.0
  0
LINE
  5
169
330
1F
100
AcDbEntity
  8
0
 62
     1
100
AcDbLine
 10
38.793829
 20
71.23014
 30
0.0
 11
35.379759
 21
72.401369
 31
0.0
  0
LINE
  5
16A
330
1F
100
AcDbEntity
  8
0
 62
     1
100
AcDbLine
 10
35.379759
 20
72.401369
 30
0.0
 11
36.107829
 21
74.523656
 31
0.0
  0
SPLINE
  5
16B
330
1F
100
AcDbEntity
  8
0
 62
     1
100
AcDbSpline
 70
     0
 71
     3
 72
    10
 73
     6
 74
     4
 42
0.000000001
 43
0.0000001
 44
0.0000000001
 40
0.0
 40
0.0
 40
0.0
 40
0.0
 40
2.159173515184456
 40
4.269751723980331
 40
6.4289465801082
 40
6.4289465801082
 40
6.4289465801082
 40
6.4289465801082
 10
36.447042
 20
71.382043
 30
0.0
 10
35.72138889343057
 20
71.45389178015054
 30
0.0
 10
34.28641454746107
 20
71.59597228028467
 30
0.0
 10
32.23059987237328
 20
70.59049084321738
 30
0.0
 10
31.46194863911852
 20
69.37041098713715
 30
0.0
 10
31.073247
 20
68.753425
 30
0.0
 11
36.447042
 21
71.382043
 31
0.0
 11
34.287885
 21
71.390488
 31
0.0
 11
32.391947
 21
70.463148
 31
0.0
 11
31.073247
 21
68.753425
 31
0.0
  0
LINE
  5
16C
330
1F
100
AcDbEntity
  8
0
 62
     1
100
AcDbLine
 10
36.038949
 20
61.208214
 30
0.0
 11
36.011009
 21
61.217527
 31
0.0
  0
LINE
  5
16D
330
1F
100
AcDbEntity
  8
0
 62
     1
100
AcDbLine
 10
36.011009
 20
61.217527
 30
0.0
 11
34.509868
 21
56.841954
 31
0.0
  0
LINE
  5
16E
330
1F
100
AcDbEntity
  8
0
 62
     1
100
AcDbLine
 10
34.509868
 20
56.841954
 30
0.0
 11
38.71498
 21
55.398952
 31
0.0
  0
SPLINE
  5
16F
330
1F
100
AcDbEntity
  8
0
 62
     1
100
AcDbSpline
 70
     0
 71
     3
 72
    10
 73
     6
 74
     4
 42
0.000000001
 43
0.0000001
 44
0.0000000001
 40
0.0
 40
0.0
 40
0.0
 40
0.0
 40
1.406338636227066
 40
2.777881513503603
 40
4.193026880747897
 40
4.193026880747897
 40
4.193026880747897
 40
4.193026880747897
 10
39.539633
 20
62.797972
 30
0.0
 10
39.2955284188798
 20
62.3890473280242
 30
0.0
 10
38.8133589144747
 20
61.58131563564558
 30
0.0
 10
37.43967833012191
 20
60.95303396235426
 30
0.0
 10
36.51070390641395
 20
61.1222713184344
 30
0.0
 10
36.038949
 20
61.208214
 30
0.0
 11
39.539633
 21
62.797972
 31
0.0
 11
38.697649
 21
61.671539
 31
0.0
 11
37.450081
 21
61.101711
 31
0.0
 11
36.038949
 21
61.208214
 31
0.0
  0
LINE
  5
170
330
1F
100
AcDbEntity
  8
0
 62
     1
100
AcDbLine
 10
42.276907
 20
57.141392
 30
0.0
 11
43.724989
 21
61.362025
 31
0.0
  0
LINE
  5
171
330
1F
100
AcDbEntity
  8
0
 62
     1
100
AcDbLine
 10
43.724989
 20
61.362025
 30
0.0
 11
39.539633
 21
62.797972
 31
0.0
  0
LINE
  5
172
330
1F
100
AcDbEntity
  8
0
 62
     1
100
AcDbLine
 10
39.539633
 20
62.797972
 30
0.0
 11
39.539633
 21
62.797972
 31
0.0
  0
LINE
  5
173
330
1F
100
AcDbEntity
  8
0
 62
     1
100
AcDbLine
 10
31.392158
 20
62.802205
 30
0.0
 11
31.331198
 21
62.823089
 31
0.0
  0
SPLINE
  5
174
330
1F
100
AcDbEntity
  8
0
 62
     1
100
AcDbSpline
 70
     0
 71
     3
 72
    10
 73
     6
 74
     4
 42
0.000000001
 43
0.0000001
 44
0.0000000001
 40
0.0
 40
0.0
 40
0.0
 40
0.0
 40
1.465846388919391
 40
2.888160562334672
 40
4.354516536518638
 40
4.354516536518638
 40
4.354516536518638
 40
4.354516536518638
 10
38.71498
 20
55.398952
 30
0.0
 10
39.20467312625241
 20
55.31251971915898
 30
0.0
 10
40.16951663617244
 20
55.14222199442828
 30
0.0
 10
41.58648649424676
 20
55.83526934621538
 30
0.0
 10
42.04443945445614
 20
56.70161490042894
 30
0.0
 10
42.276907
 20
57.141392
 30
0.0
 11
38.71498
 21
55.398952
 31
0.0
 11
40.177612
 21
55.30193
 31
0.0
 11
41.455295
 21
55.926833
 31
0.0
 11
42.276907
 21
57.141392
 31
0.0
  0
LINE
  5
175
330
1F
100
AcDbEntity
  8
0
 62
     1
100
AcDbLine
 10
29.542756
 20
66.226972
 30
0.0
 11
25.39155
 21
67.651347
 31
0.0
  0
LINE
  5
176
330
1F
100
AcDbEntity
  8
0
 62
     1
100
AcDbLine
 10
25.39155
 20
67.651347
 30
0.0
 11
23.943467
 21
63.430149
 31
0.0
  0
SPLINE
  5
177
330
1F
100
AcDbEntity
  8
0
 62
     1
100
AcDbSpline
 70
     0
 71
     3
 72
    10
 73
     6
 74
     4
 42
0.000000001
 43
0.0000001
 44
0.0000000001
 40
0.0
 40
0.0
 40
0.0
 40
0.0
 40
1.41528824220651
 40
2.786874424003705
 40
4.193097610580432
 40
4.193097610580432
 40
4.193097610580432
 40
4.193097610580432
 10
31.331198
 20
62.823089
 30
0.0
 10
30.90599639732006
 20
63.04487630983159
 30
0.0
 10
30.06872280441105
 20
63.48160245713188
 30
0.0
 10
29.36994491076411
 20
64.82071931492393
 30
0.0
 10
29.48467543839119
 20
65.7543406076845
 30
0.0
 10
29.542756
 20
66.226972
 30
0.0
 11
31.331198
 21
62.823089
 31
0.0
 11
30.15175
 21
63.605357
 31
0.0
 11
29.516551
 21
64.820993
 31
0.0
 11
29.542756
 21
66.226972
 31
0.0
  0
LINE
  5
178
330
1F
100
AcDbEntity
  8
0
 62
     1
100
AcDbLine
 10
25.68619
 20
59.868223
 30
0.0
 11
29.890736
 21
58.426349
 31
0.0
  0
LINE
  5
179
330
1F
100
AcDbEntity
  8
0
 62
     1
100
AcDbLine
 10
29.890736
 20
58.426349
 30
0.0
 11
31.392158
 21
62.802205
 31
0.0
  0
LINE
  5
17A
330
1F
100
AcDbEntity
  8
0
 62
     1
100
AcDbLine
 10
31.392158
 20
62.802205
 30
0.0
 11
31.392158
 21
62.802205
 31
0.0
  0
SPLINE
  5
17B
330
1F
100
AcDbEntity
  8
0
 62
     1
100
AcDbSpline
 70
     0
 71
     3
 72
    10
 73
     6
 74
     4
 42
0.000000001
 43
0.0000001
 44
0.0000000001
 40
0.0
 40
0.0
 40
0.0
 40
0.0
 40
1.465853938808365
 40
2.888478922321938
 40
4.354790304538554
 40
4.354790304538554
 40
4.354790304538554
 40
4.354790304538554
 10
23.943467
 20
63.430149
 30
0.0
 10
23.85697358422695
 20
62.94045121195315
 30
0.0
 10
23.68653749795279
 20
61.97549713185507
 30
0.0
 10
24.37994933854466
 20
60.55851747468097
 30
0.0
 10
25.246408921941
 20
60.10062921518791
 30
0.0
 10
25.68619
 20
59.868223
 30
0.0
 11
23.943467
 21
63.430149
 31
0.0
 11
23.846331
 21
61.967517
 31
0.0
 11
24.471557
 21
60.689646
 31
0.0
 11
25.68619
 21
59.868223
 31
0.0
  0
LINE
  5
17C
330
1F
100
AcDbEntity
  8
0
 62
     1
100
AcDbLine
 10
34.674686
 20
72.569352
 30
0.0
 11
34.735646
 21
72.548467
 31
0.0
  0
LINE
  5
17D
330
1F
100
AcDbEntity
  8
0
 62
     1
100
AcDbLine
 10
34.735646
 20
72.548467
 30
0.0
 11
36.191349
 21
76.792243
 31
0.0
  0
LINE
  5
17E
330
1F
100
AcDbEntity
  8
0
 62
     1
100
AcDbLine
 10
36.191349
 20
76.792243
 30
0.0
 11
31.986518
 21
78.23468
 31
0.0
  0
SPLINE
  5
17F
330
1F
100
AcDbEntity
  8
0
 62
     1
100
AcDbSpline
 70
     0
 71
     3
 72
    10
 73
     6
 74
     4
 42
0.000000001
 43
0.0000001
 44
0.0000000001
 40
0.0
 40
0.0
 40
0.0
 40
0.0
 40
1.45750247182227
 40
2.872869273199211
 40
4.331435331302172
 40
4.331435331302172
 40
4.331435331302172
 40
4.331435331302172
 10
31.120943
 20
70.848925
 30
0.0
 10
31.35519243188892
 20
71.28419382732135
 30
0.0
 10
31.8169192612758
 20
72.14214807698342
 30
0.0
 10
33.22776595457979
 20
72.82587318854763
 30
0.0
 10
34.18757024828594
 20
72.65571165199698
 30
0.0
 10
34.674686
 20
72.569352
 30
0.0
 11
31.120943
 21
70.848925
 31
0.0
 11
31.945701
 21
72.050627
 31
0.0
 11
33.219443
 21
72.667753
 31
0.0
 11
34.674686
 21
72.569352
 31
0.0
  0
LINE
  5
180
330
1F
100
AcDbEntity
  8
0
 62
     1
100
AcDbLine
 10
28.425156
 20
76.49224
 30
0.0
 11
26.97651
 21
72.271043
 31
0.0
  0
LINE
  5
181
330
1F
100
AcDbEntity
  8
0
 62
     1
100
AcDbLine
 10
26.97651
 20
72.271043
 30
0.0
 11
31.120943
 21
70.848925
 31
0.0
  0
LINE
  5
182
330
1F
100
AcDbEntity
  8
0
 62
     1
100
AcDbLine
 10
31.120943
 20
70.848925
 30
0.0
 11
31.120943
 21
70.848925
 31
0.0
  0
LINE
  5
183
330
1F
100
AcDbEntity
  8
0
 62
     1
100
AcDbLine
 10
39.35506
 20
70.964072
 30
0.0
 11
39.382718
 21
70.954194
 31
0.0
  0
SPLINE
  5
184
330
1F
100
AcDbEntity
  8
0
 62
     1
100
AcDbSpline
 70
     0
 71
     3
 72
    10
 73
     6
 74
     4
 42
0.000000001
 43
0.0000001
 44
0.0000000001
 40
0.0
 40
0.0
 40
0.0
 40
0.0
 40
1.465700709108107
 40
2.88793942472866
 40
4.354107721756671
 40
4.354107721756671
 40
4.354107721756671
 40
4.354107721756671
 10
31.986518
 20
78.23468
 30
0.0
 10
31.49687748849377
 20
78.32110666216539
 30
0.0
 10
30.53211563204107
 20
78.49139720201715
 30
0.0
 10
29.11522581486507
 20
77.79840633658378
 30
0.0
 10
28.65749977943651
 20
76.93202104342089
 30
0.0
 10
28.425156
 20
76.49224
 30
0.0
 11
31.986518
 21
78.23468
 31
0.0
 11
30.524032
 21
78.331702
 31
0.0
 11
29.246433
 21
77.706799
 31
0.0
 11
28.425156
 21
76.49224
 31
0.0
  0
LINE
  5
185
330
1F
100
AcDbEntity
  8
0
 62
     1
100
AcDbLine
 10
41.131084
 20
67.414845
 30
0.0
 11
45.309949
 21
65.98172
 31
0.0
  0
LINE
  5
186
330
1F
100
AcDbEntity
  8
0
 62
     1
100
AcDbLine
 10
45.309949
 20
65.98172
 30
0.0
 11
46.757749
 21
70.202918
 31
0.0
  0
SPLINE
  5
187
330
1F
100
AcDbEntity
  8
0
 62
     1
100
AcDbSpline
 70
     0
 71
     3
 72
    10
 73
     6
 74
     4
 42
0.000000001
 43
0.0000001
 44
0.0000000001
 40
0.0
 40
0.0
 40
0.0
 40
0.0
 40
1.458443803517984
 40
2.873564484957206
 40
4.330999623680713
 40
4.330999623680713
 40
4.330999623680713
 40
4.330999623680713
 10
39.382718
 20
70.954194
 30
0.0
 10
39.82027780287231
 20
70.72341211111136
 30
0.0
 10
40.68239968000316
 20
70.26870371708065
 30
0.0
 10
41.37593511974758
 20
68.86275090155979
 30
0.0
 10
41.21349863528776
 20
67.90219681170937
 30
0.0
 10
41.131084
 20
67.414845
 30
0.0
 11
39.382718
 21
70.954194
 31
0.0
 11
40.591852
 21
70.138686
 31
0.0
 11
41.218103
 21
68.86968
 31
0.0
 11
41.131084
 21
67.414845
 31
0.0
  0
LINE
  5
188
330
1F
100
AcDbEntity
  8
0
 62
     1
100
AcDbLine
 10
45.015309
 20
73.764845
 30
0.0
 11
40.811044
 21
75.207283
 31
0.0
  0
LINE
  5
189
330
1F
100
AcDbEntity
  8
0
 62
     1
100
AcDbLine
 10
40.811044
 20
75.207283
 30
0.0
 11
39.35506
 21
70.964072
 31
0.0
  0
LINE
  5
18A
330
1F
100
AcDbEntity
  8
0
 62
     1
100
AcDbLine
 10
39.35506
 20
70.964072
 30
0.0
 11
39.35506
 21
70.964072
 31
0.0
  0
LINE
  5
18B
330
1F
100
AcDbEntity
  8
0
 62
     1
100
AcDbLine
 10
46.160284
 20
63.747649
 30
0.0
 11
49.935007
 21
66.816816
 31
0.0
  0
LINE
  5
18C
330
1F
100
AcDbEntity
  8
0
 62
     1
100
AcDbLine
 10
49.935007
 20
66.816816
 30
0.0
 11
48.488618
 21
63.818205
 31
0.0
  0
LINE
  5
18D
330
1F
100
AcDbEntity
  8
0
 62
     1
100
AcDbLine
 10
48.488618
 20
63.818205
 30
0.0
 11
50.146673
 21
60.925427
 31
0.0
  0
LINE
  5
18E
330
1F
100
AcDbEntity
  8
0
 62
     1
100
AcDbLine
 10
50.146673
 20
60.925427
 30
0.0
 11
47.504791
 21
57.819289
 31
0.0
  0
LINE
  5
18F
330
1F
100
AcDbEntity
  8
0
 62
     1
100
AcDbLine
 10
47.504791
 20
57.819289
 30
0.0
 11
48.821922
 21
52.573343
 31
0.0
  0
LINE
  5
190
330
1F
100
AcDbEntity
  8
0
 62
     1
100
AcDbLine
 10
48.821922
 20
52.573343
 30
0.0
 11
43.600811
 21
52.573343
 31
0.0
  0
LINE
  5
191
330
1F
100
AcDbEntity
  8
0
 62
     1
100
AcDbLine
 10
43.600811
 20
52.573343
 30
0.0
 11
40.237569
 21
48.129472
 31
0.0
  0
LINE
  5
192
330
1F
100
AcDbEntity
  8
0
 62
     1
100
AcDbLine
 10
40.237569
 20
48.129472
 30
0.0
 11
35.888807
 21
52.457067
 31
0.0
  0
LINE
  5
193
330
1F
100
AcDbEntity
  8
0
 62
     1
100
AcDbLine
 10
35.888807
 20
52.457067
 30
0.0
 11
32.17081
 21
50.740027
 31
0.0
  0
LINE
  5
194
330
1F
100
AcDbEntity
  8
0
 62
     1
100
AcDbLine
 10
32.17081
 20
50.740027
 30
0.0
 11
31.691596
 21
54.267805
 31
0.0
  0
LINE
  5
195
330
1F
100
AcDbEntity
  8
0
 62
     1
100
AcDbLine
 10
31.691596
 20
54.267805
 30
0.0
 11
29.230901
 21
55.514663
 31
0.0
  0
LINE
  5
196
330
1F
100
AcDbEntity
  8
0
 62
     1
100
AcDbLine
 10
29.230901
 20
55.514663
 30
0.0
 11
33.454357
 21
55.585218
 31
0.0
  0
LINE
  5
197
330
1F
100
AcDbEntity
  8
0
 62
     1
100
AcDbLine
 10
33.454357
 20
55.585218
 30
0.0
 11
33.290386
 21
52.782187
 31
0.0
  0
LINE
  5
198
330
1F
100
AcDbEntity
  8
0
 62
     1
100
AcDbLine
 10
33.290386
 20
52.782187
 30
0.0
 11
36.3731
 21
54.832249
 31
0.0
  0
LINE
  5
199
330
1F
100
AcDbEntity
  8
0
 62
     1
100
AcDbLine
 10
36.3731
 20
54.832249
 30
0.0
 11
39.955347
 21
51.092805
 31
0.0
  0
LINE
  5
19A
330
1F
100
AcDbEntity
  8
0
 62
     1
100
AcDbLine
 10
39.955347
 20
51.092805
 30
0.0
 11
43.012942
 21
54.526885
 31
0.0
  0
LINE
  5
19B
330
1F
100
AcDbEntity
  8
0
 62
     1
100
AcDbLine
 10
43.012942
 20
54.526885
 30
0.0
 11
46.587569
 21
54.315218
 31
0.0
  0
LINE
  5
19C
330
1F
100
AcDbEntity
  8
0
 62
     1
100
AcDbLine
 10
46.587569
 20
54.315218
 30
0.0
 11
45.172507
 21
57.85626
 31
0.0
  0
LINE
  5
19D
330
1F
100
AcDbEntity
  8
0
 62
     1
100
AcDbLine
 10
45.172507
 20
57.85626
 30
0.0
 11
47.712507
 21
60.995983
 31
0.0
  0
LINE
  5
19E
330
1F
100
AcDbEntity
  8
0
 62
     1
100
AcDbLine
 10
47.712507
 20
60.995983
 30
0.0
 11
46.160284
 21
63.747649
 31
0.0
  0
SPLINE
  5
19F
330
1F
100
AcDbEntity
  8
0
 62
     1
100
AcDbSpline
 70
     0
 71
     3
 72
    10
 73
     6
 74
     4
 42
0.000000001
 43
0.0000001
 44
0.0000000001
 40
0.0
 40
0.0
 40
0.0
 40
0.0
 40
1.4659762172764
 40
2.888626482380233
 40
4.354684335926597
 40
4.354684335926597
 40
4.354684335926597
 40
4.354684335926597
 10
46.757749
 20
70.202918
 30
0.0
 10
46.84419913391989
 20
70.69264311992711
 30
0.0
 10
47.01454442554425
 20
71.65761985954747
 30
0.0
 10
46.32156509435669
 20
73.07478682641519
 30
0.0
 10
45.45506787983447
 20
73.53253281347907
 30
0.0
 10
45.015309
 20
73.764845
 30
0.0
 11
46.757749
 21
70.202918
 31
0.0
 11
46.854833
 21
71.665676
 31
0.0
 11
46.229805
 21
72.943672
 31
0.0
 11
45.015309
 21
73.764845
 31
0.0
  0
ENDSEC
  0
SECTION
  2
OBJECTS
  0
DICTIONARY
  5
C
330
0
100
AcDbDictionary
  3
ACAD_GROUP
350
D
  3
ACAD_IMAGE_VARS
350
10045
  3
ACAD_MLINESTYLE
350
17
  3
ACAD_SCALELIST
350
1008E
  3
APPDATA
350
10043
  3
DWGPROPS
350
100D3
  0
DICTIONARY
  5
D
330
C
100
AcDbDictionary
  0
RASTERVARIABLES
  5
10045
102
{ACAD_REACTORS
330
C
102
}
330
C
100
AcDbRasterVariables
 90
        0
 70
     1
 71
     1
 72
     0
  0
DICTIONARY
  5
17
330
C
100
AcDbDictionary
  3
STANDARD
350
10047
  0
DICTIONARY
  5
1008E
102
{ACAD_REACTORS
330
C
102
}
330
C
100
AcDbDictionary
  0
DICTIONARY
  5
10043
102
{ACAD_REACTORS
330
C
102
}
330
C
100
AcDbDictionary
  0
XRECORD
  5
100D3
102
{ACAD_REACTORS
330
C
102
}
330
C
100
AcDbXrecord
  1
DWGPROPS COOKIE
  2

  3

  4

  6

  7

  8
indrora
  9

300
=
301
=
302
=
303
=
304
=
305
=
306
=
307
=
308
=
309
=
 40
0.0
 41
2447893.041666667
 42
2457001.217794329
  1

 90
        0
  0
MLINESTYLE
  5
10047
102
{ACAD_REACTORS
330
17
102
}
330
17
100
AcDbMlineStyle
  2
Standard
 70
     0
  3

 62
   256
 51
90.0
 52
90.0
 71
     2
 49
0.5
 62
   256
  6
BYLAYER
 49
-0.5
 62
   256
  6
BYLAYER
  0
ENDSEC
  0
EOF
